<svg width="1314" height="508" viewBox="0 0 1314 508" fill="none" xmlns="http://www.w3.org/2000/svg">
<path d="M12.642 194V48.5455H70.0284C81.0606 48.5455 90.4593 50.6525 98.2244 54.8665C105.99 59.0331 111.908 64.8333 115.98 72.267C120.099 79.6534 122.159 88.1761 122.159 97.8352C122.159 107.494 120.076 116.017 115.909 123.403C111.742 130.79 105.705 136.543 97.7983 140.662C89.9384 144.781 80.4214 146.841 69.2472 146.841H32.6705V122.196H64.2756C70.1941 122.196 75.071 121.178 78.9062 119.142C82.7888 117.059 85.6771 114.194 87.571 110.548C89.5123 106.855 90.483 102.617 90.483 97.8352C90.483 93.0057 89.5123 88.7917 87.571 85.1932C85.6771 81.5473 82.7888 78.7301 78.9062 76.7415C75.0237 74.7055 70.0994 73.6875 64.1335 73.6875H43.3949V194H12.642ZM169.744 196.06C162.784 196.06 156.581 194.852 151.136 192.438C145.691 189.975 141.383 186.353 138.21 181.571C135.085 176.741 133.523 170.728 133.523 163.531C133.523 157.471 134.635 152.381 136.861 148.261C139.086 144.142 142.116 140.828 145.952 138.318C149.787 135.809 154.143 133.915 159.02 132.636C163.944 131.358 169.105 130.458 174.503 129.938C180.848 129.275 185.961 128.659 189.844 128.091C193.726 127.475 196.544 126.576 198.295 125.392C200.047 124.208 200.923 122.456 200.923 120.136V119.71C200.923 115.212 199.503 111.732 196.662 109.27C193.868 106.808 189.891 105.577 184.73 105.577C179.285 105.577 174.953 106.784 171.733 109.199C168.513 111.566 166.383 114.549 165.341 118.148L137.358 115.875C138.778 109.246 141.572 103.517 145.739 98.6875C149.905 93.8106 155.279 90.0701 161.861 87.4659C168.49 84.8144 176.16 83.4886 184.872 83.4886C190.933 83.4886 196.733 84.1989 202.273 85.6193C207.86 87.0398 212.808 89.2415 217.116 92.2244C221.473 95.2074 224.905 99.0426 227.415 103.73C229.924 108.37 231.179 113.934 231.179 120.42V194H202.486V178.872H201.634C199.882 182.281 197.538 185.288 194.602 187.892C191.667 190.449 188.139 192.461 184.02 193.929C179.901 195.349 175.142 196.06 169.744 196.06ZM178.409 175.179C182.86 175.179 186.79 174.303 190.199 172.551C193.608 170.752 196.283 168.337 198.224 165.307C200.166 162.277 201.136 158.844 201.136 155.009V143.432C200.189 144.047 198.887 144.616 197.23 145.136C195.62 145.61 193.797 146.06 191.761 146.486C189.725 146.865 187.689 147.22 185.653 147.551C183.617 147.835 181.771 148.096 180.114 148.332C176.563 148.853 173.461 149.682 170.81 150.818C168.158 151.955 166.098 153.493 164.631 155.435C163.163 157.329 162.429 159.696 162.429 162.537C162.429 166.656 163.92 169.805 166.903 171.983C169.934 174.114 173.769 175.179 178.409 175.179ZM284.908 48.5455V194H254.652V48.5455H284.908ZM309.144 194V84.9091H339.4V194H309.144ZM324.343 70.8466C319.845 70.8466 315.986 69.3551 312.766 66.3722C309.594 63.3419 308.008 59.7197 308.008 55.5057C308.008 51.339 309.594 47.7642 312.766 44.7812C315.986 41.7509 319.845 40.2358 324.343 40.2358C328.841 40.2358 332.676 41.7509 335.849 44.7812C339.068 47.7642 340.678 51.339 340.678 55.5057C340.678 59.7197 339.068 63.3419 335.849 66.3722C332.676 69.3551 328.841 70.8466 324.343 70.8466ZM393.892 130.932V194H363.636V84.9091H392.472V104.156H393.75C396.165 97.8116 400.213 92.7926 405.895 89.0994C411.577 85.3589 418.466 83.4886 426.562 83.4886C434.138 83.4886 440.743 85.1458 446.378 88.4602C452.012 91.7746 456.392 96.5095 459.517 102.665C462.642 108.773 464.205 116.064 464.205 124.54V194H433.949V129.938C433.996 123.261 432.292 118.053 428.835 114.312C425.379 110.525 420.62 108.631 414.56 108.631C410.488 108.631 406.889 109.507 403.764 111.259C400.687 113.01 398.272 115.567 396.52 118.929C394.815 122.243 393.939 126.244 393.892 130.932ZM528.249 195.776C519.963 195.776 512.459 193.645 505.735 189.384C499.059 185.075 493.756 178.754 489.826 170.42C485.943 162.04 484.002 151.765 484.002 139.597C484.002 127.097 486.014 116.704 490.039 108.418C494.064 100.084 499.414 93.858 506.09 89.7386C512.814 85.572 520.176 83.4886 528.178 83.4886C534.286 83.4886 539.376 84.5303 543.448 86.6136C547.567 88.6496 550.882 91.2064 553.391 94.2841C555.948 97.3144 557.889 100.297 559.215 103.233H560.138V48.5455H590.323V194H560.494V176.528H559.215C557.795 179.559 555.782 182.565 553.178 185.548C550.621 188.484 547.283 190.922 543.164 192.864C539.092 194.805 534.121 195.776 528.249 195.776ZM537.837 171.699C542.714 171.699 546.834 170.373 550.195 167.722C553.604 165.023 556.209 161.259 558.008 156.429C559.854 151.599 560.778 145.941 560.778 139.455C560.778 132.968 559.878 127.333 558.079 122.551C556.28 117.769 553.675 114.076 550.266 111.472C546.857 108.867 542.714 107.565 537.837 107.565C532.866 107.565 528.675 108.915 525.266 111.614C521.857 114.312 519.277 118.053 517.525 122.835C515.773 127.617 514.897 133.157 514.897 139.455C514.897 145.799 515.773 151.41 517.525 156.287C519.324 161.116 521.905 164.904 525.266 167.651C528.675 170.349 532.866 171.699 537.837 171.699ZM615.199 194V84.9091H644.531V103.943H645.668C647.656 97.1723 650.994 92.0587 655.682 88.6023C660.369 85.0985 665.767 83.3466 671.875 83.3466C673.39 83.3466 675.024 83.4413 676.776 83.6307C678.527 83.8201 680.066 84.0805 681.392 84.4119V111.259C679.972 110.832 678.007 110.454 675.497 110.122C672.988 109.791 670.691 109.625 668.608 109.625C664.157 109.625 660.18 110.596 656.676 112.537C653.22 114.431 650.473 117.082 648.438 120.491C646.449 123.901 645.455 127.83 645.455 132.281V194H615.199ZM741.246 196.131C730.214 196.131 720.674 193.787 712.624 189.099C704.622 184.365 698.443 177.783 694.087 169.355C689.731 160.88 687.553 151.055 687.553 139.881C687.553 128.612 689.731 118.763 694.087 110.335C698.443 101.86 704.622 95.2784 712.624 90.5909C720.674 85.8561 730.214 83.4886 741.246 83.4886C752.279 83.4886 761.796 85.8561 769.798 90.5909C777.847 95.2784 784.049 101.86 788.406 110.335C792.762 118.763 794.94 128.612 794.94 139.881C794.94 151.055 792.762 160.88 788.406 169.355C784.049 177.783 777.847 184.365 769.798 189.099C761.796 193.787 752.279 196.131 741.246 196.131ZM741.388 172.693C746.407 172.693 750.598 171.273 753.96 168.432C757.321 165.544 759.854 161.614 761.559 156.642C763.311 151.67 764.187 146.012 764.187 139.668C764.187 133.323 763.311 127.665 761.559 122.693C759.854 117.722 757.321 113.792 753.96 110.903C750.598 108.015 746.407 106.571 741.388 106.571C736.322 106.571 732.061 108.015 728.604 110.903C725.195 113.792 722.615 117.722 720.863 122.693C719.158 127.665 718.306 133.323 718.306 139.668C718.306 146.012 719.158 151.67 720.863 156.642C722.615 161.614 725.195 165.544 728.604 168.432C732.061 171.273 736.322 172.693 741.388 172.693ZM814.613 194V84.9091H843.448V104.156H844.727C846.999 97.7642 850.787 92.7216 856.09 89.0284C861.393 85.3352 867.738 83.4886 875.124 83.4886C882.605 83.4886 888.974 85.3589 894.229 89.0994C899.485 92.7926 902.989 97.8116 904.741 104.156H905.877C908.103 97.9062 912.127 92.911 917.951 89.1705C923.822 85.3826 930.759 83.4886 938.761 83.4886C948.941 83.4886 957.203 86.732 963.548 93.2188C969.94 99.6581 973.136 108.796 973.136 120.634V194H942.951V126.599C942.951 120.539 941.341 115.993 938.121 112.963C934.902 109.933 930.877 108.418 926.048 108.418C920.555 108.418 916.27 110.17 913.192 113.673C910.115 117.13 908.576 121.699 908.576 127.381V194H879.244V125.96C879.244 120.61 877.705 116.348 874.627 113.176C871.597 110.004 867.596 108.418 862.624 108.418C859.263 108.418 856.232 109.27 853.533 110.974C850.882 112.632 848.775 114.975 847.212 118.006C845.65 120.989 844.869 124.492 844.869 128.517V194H814.613ZM1046.75 196.131C1035.53 196.131 1025.87 193.858 1017.77 189.312C1009.72 184.72 1003.52 178.233 999.165 169.852C994.809 161.424 992.631 151.457 992.631 139.952C992.631 128.73 994.809 118.882 999.165 110.406C1003.52 101.931 1009.65 95.3258 1017.56 90.5909C1025.51 85.8561 1034.84 83.4886 1045.54 83.4886C1052.74 83.4886 1059.44 84.6487 1065.64 86.9688C1071.89 89.2415 1077.34 92.6742 1081.98 97.267C1086.67 101.86 1090.31 107.636 1092.92 114.597C1095.52 121.509 1096.82 129.606 1096.82 138.886V147.196H1004.71V128.446H1068.34C1068.34 124.09 1067.39 120.231 1065.5 116.869C1063.61 113.508 1060.98 110.88 1057.62 108.986C1054.3 107.045 1050.44 106.074 1046.04 106.074C1041.45 106.074 1037.38 107.139 1033.82 109.27C1030.32 111.353 1027.57 114.17 1025.59 117.722C1023.6 121.225 1022.58 125.132 1022.53 129.44V147.267C1022.53 152.665 1023.53 157.329 1025.51 161.259C1027.55 165.188 1030.42 168.219 1034.11 170.349C1037.8 172.48 1042.18 173.545 1047.25 173.545C1050.61 173.545 1053.69 173.072 1056.48 172.125C1059.27 171.178 1061.67 169.758 1063.65 167.864C1065.64 165.97 1067.16 163.65 1068.2 160.903L1096.18 162.75C1094.76 169.473 1091.85 175.345 1087.45 180.364C1083.09 185.335 1077.46 189.218 1070.54 192.011C1063.68 194.758 1055.75 196.131 1046.75 196.131ZM140.98 341.469H109.872C109.304 337.444 108.144 333.869 106.392 330.744C104.64 327.572 102.391 324.873 99.6449 322.648C96.8987 320.422 93.7263 318.718 90.1278 317.534C86.5767 316.35 82.7178 315.759 78.5511 315.759C71.0227 315.759 64.465 317.629 58.8778 321.369C53.2907 325.062 48.9583 330.46 45.8807 337.562C42.803 344.617 41.2642 353.187 41.2642 363.273C41.2642 373.642 42.803 382.354 45.8807 389.409C49.0057 396.464 53.3617 401.791 58.9489 405.389C64.536 408.988 70.9991 410.787 78.3381 410.787C82.4574 410.787 86.2689 410.242 89.7727 409.153C93.3239 408.064 96.4725 406.478 99.2188 404.395C101.965 402.264 104.238 399.684 106.037 396.653C107.884 393.623 109.162 390.167 109.872 386.284L140.98 386.426C140.175 393.102 138.163 399.542 134.943 405.744C131.771 411.9 127.486 417.416 122.088 422.293C116.738 427.122 110.346 430.957 102.912 433.798C95.5256 436.592 87.1686 437.989 77.8409 437.989C64.8674 437.989 53.267 435.053 43.0398 429.182C32.8598 423.311 24.8106 414.812 18.892 403.685C13.0208 392.558 10.0852 379.087 10.0852 363.273C10.0852 347.411 13.0682 333.917 19.0341 322.79C25 311.663 33.0966 303.187 43.3239 297.364C53.5511 291.492 65.0568 288.557 77.8409 288.557C86.2689 288.557 94.0814 289.741 101.278 292.108C108.523 294.475 114.938 297.932 120.526 302.477C126.113 306.975 130.658 312.491 134.162 319.026C137.713 325.56 139.986 333.041 140.98 341.469ZM192.72 372.932V436H162.464V290.545H191.868V346.156H193.146C195.608 339.717 199.586 334.674 205.078 331.028C210.571 327.335 217.46 325.489 225.746 325.489C233.321 325.489 239.927 327.146 245.561 330.46C251.243 333.727 255.646 338.438 258.771 344.594C261.944 350.702 263.506 358.017 263.459 366.54V436H233.203V371.938C233.25 365.214 231.546 359.982 228.089 356.241C224.68 352.501 219.898 350.631 213.743 350.631C209.624 350.631 205.978 351.507 202.805 353.259C199.68 355.01 197.218 357.567 195.419 360.929C193.667 364.243 192.768 368.244 192.72 372.932ZM336.985 438.131C325.763 438.131 316.104 435.858 308.008 431.312C299.959 426.72 293.756 420.233 289.4 411.852C285.044 403.424 282.866 393.457 282.866 381.952C282.866 370.73 285.044 360.882 289.4 352.406C293.756 343.931 299.888 337.326 307.795 332.591C315.749 327.856 325.077 325.489 335.778 325.489C342.975 325.489 349.674 326.649 355.877 328.969C362.127 331.241 367.572 334.674 372.212 339.267C376.9 343.86 380.546 349.636 383.15 356.597C385.754 363.509 387.056 371.606 387.056 380.886V389.196H294.94V370.446H358.576C358.576 366.09 357.629 362.231 355.735 358.869C353.841 355.508 351.213 352.88 347.852 350.986C344.537 349.045 340.678 348.074 336.275 348.074C331.682 348.074 327.61 349.139 324.059 351.27C320.555 353.353 317.809 356.17 315.82 359.722C313.832 363.225 312.814 367.132 312.766 371.44V389.267C312.766 394.665 313.761 399.329 315.749 403.259C317.785 407.188 320.65 410.219 324.343 412.349C328.036 414.48 332.416 415.545 337.482 415.545C340.844 415.545 343.922 415.072 346.715 414.125C349.509 413.178 351.9 411.758 353.888 409.864C355.877 407.97 357.392 405.65 358.434 402.903L386.417 404.75C384.996 411.473 382.085 417.345 377.681 422.364C373.325 427.335 367.691 431.218 360.778 434.011C353.912 436.758 345.981 438.131 336.985 438.131ZM456.09 438.131C444.916 438.131 435.304 435.763 427.255 431.028C419.253 426.246 413.098 419.617 408.789 411.142C404.528 402.667 402.397 392.913 402.397 381.881C402.397 370.706 404.551 360.905 408.86 352.477C413.216 344.002 419.395 337.397 427.397 332.662C435.399 327.88 444.916 325.489 455.948 325.489C465.465 325.489 473.799 327.217 480.948 330.673C488.098 334.13 493.756 338.983 497.923 345.233C502.089 351.483 504.386 358.822 504.812 367.25H476.261C475.456 361.805 473.325 357.425 469.869 354.111C466.46 350.749 461.985 349.068 456.445 349.068C451.758 349.068 447.662 350.347 444.158 352.903C440.702 355.413 438.003 359.082 436.062 363.912C434.121 368.741 433.15 374.589 433.15 381.455C433.15 388.415 434.097 394.333 435.991 399.21C437.932 404.087 440.655 407.804 444.158 410.361C447.662 412.918 451.758 414.196 456.445 414.196C459.902 414.196 463.003 413.486 465.749 412.065C468.543 410.645 470.839 408.585 472.638 405.886C474.485 403.14 475.692 399.849 476.261 396.014H504.812C504.338 404.348 502.066 411.687 497.994 418.031C493.969 424.329 488.406 429.253 481.303 432.804C474.201 436.355 465.797 438.131 456.09 438.131ZM551.598 404.608L551.669 368.315H556.072L591.016 326.909H625.746L578.8 381.739H571.626L551.598 404.608ZM524.183 436V290.545H554.439V436H524.183ZM592.365 436L560.263 388.486L580.433 367.108L627.805 436H592.365ZM685.813 438.131C674.592 438.131 664.933 435.858 656.836 431.312C648.787 426.72 642.584 420.233 638.228 411.852C633.872 403.424 631.694 393.457 631.694 381.952C631.694 370.73 633.872 360.882 638.228 352.406C642.584 343.931 648.716 337.326 656.623 332.591C664.577 327.856 673.905 325.489 684.606 325.489C691.803 325.489 698.503 326.649 704.705 328.969C710.955 331.241 716.4 334.674 721.04 339.267C725.728 343.86 729.374 349.636 731.978 356.597C734.582 363.509 735.884 371.606 735.884 380.886V389.196H643.768V370.446H707.404C707.404 366.09 706.457 362.231 704.563 358.869C702.669 355.508 700.041 352.88 696.68 350.986C693.365 349.045 689.506 348.074 685.103 348.074C680.51 348.074 676.438 349.139 672.887 351.27C669.383 353.353 666.637 356.17 664.648 359.722C662.66 363.225 661.642 367.132 661.594 371.44V389.267C661.594 394.665 662.589 399.329 664.577 403.259C666.613 407.188 669.478 410.219 673.171 412.349C676.864 414.48 681.244 415.545 686.31 415.545C689.672 415.545 692.75 415.072 695.543 414.125C698.337 413.178 700.728 411.758 702.717 409.864C704.705 407.97 706.22 405.65 707.262 402.903L735.245 404.75C733.825 411.473 730.913 417.345 726.509 422.364C722.153 427.335 716.519 431.218 709.606 434.011C702.74 436.758 694.809 438.131 685.813 438.131ZM755.629 436V326.909H784.961V345.943H786.097C788.086 339.172 791.424 334.059 796.112 330.602C800.799 327.098 806.197 325.347 812.305 325.347C813.82 325.347 815.453 325.441 817.205 325.631C818.957 325.82 820.496 326.08 821.822 326.412V353.259C820.401 352.832 818.436 352.454 815.927 352.122C813.417 351.791 811.121 351.625 809.038 351.625C804.587 351.625 800.61 352.596 797.106 354.537C793.649 356.431 790.903 359.082 788.867 362.491C786.879 365.901 785.884 369.83 785.884 374.281V436H755.629ZM842.649 437.847C837.962 437.847 833.937 436.189 830.575 432.875C827.261 429.513 825.604 425.489 825.604 420.801C825.604 416.161 827.261 412.184 830.575 408.869C833.937 405.555 837.962 403.898 842.649 403.898C847.195 403.898 851.172 405.555 854.581 408.869C857.99 412.184 859.695 416.161 859.695 420.801C859.695 423.926 858.89 426.791 857.28 429.395C855.717 431.952 853.658 434.011 851.101 435.574C848.544 437.089 845.727 437.847 842.649 437.847Z" fill="black"/>
<mask id="path-2-outside-1_108_22" maskUnits="userSpaceOnUse" x="37" y="63" width="1089" height="401" fill="black">
<rect fill="white" x="37" y="63" width="1089" height="401"/>
<path d="M40.642 218V72.5455H98.0284C109.061 72.5455 118.459 74.6525 126.224 78.8665C133.99 83.0331 139.908 88.8333 143.98 96.267C148.099 103.653 150.159 112.176 150.159 121.835C150.159 131.494 148.076 140.017 143.909 147.403C139.742 154.79 133.705 160.543 125.798 164.662C117.938 168.781 108.421 170.841 97.2472 170.841H60.6705V146.196H92.2756C98.1941 146.196 103.071 145.178 106.906 143.142C110.789 141.059 113.677 138.194 115.571 134.548C117.512 130.855 118.483 126.617 118.483 121.835C118.483 117.006 117.512 112.792 115.571 109.193C113.677 105.547 110.789 102.73 106.906 100.741C103.024 98.7055 98.0994 97.6875 92.1335 97.6875H71.3949V218H40.642ZM197.744 220.06C190.784 220.06 184.581 218.852 179.136 216.438C173.691 213.975 169.383 210.353 166.21 205.571C163.085 200.741 161.523 194.728 161.523 187.531C161.523 181.471 162.635 176.381 164.861 172.261C167.086 168.142 170.116 164.828 173.952 162.318C177.787 159.809 182.143 157.915 187.02 156.636C191.944 155.358 197.105 154.458 202.503 153.938C208.848 153.275 213.961 152.659 217.844 152.091C221.726 151.475 224.544 150.576 226.295 149.392C228.047 148.208 228.923 146.456 228.923 144.136V143.71C228.923 139.212 227.503 135.732 224.662 133.27C221.868 130.808 217.891 129.577 212.73 129.577C207.285 129.577 202.953 130.784 199.733 133.199C196.513 135.566 194.383 138.549 193.341 142.148L165.358 139.875C166.778 133.246 169.572 127.517 173.739 122.688C177.905 117.811 183.279 114.07 189.861 111.466C196.49 108.814 204.16 107.489 212.872 107.489C218.933 107.489 224.733 108.199 230.273 109.619C235.86 111.04 240.808 113.241 245.116 116.224C249.473 119.207 252.905 123.043 255.415 127.73C257.924 132.37 259.179 137.934 259.179 144.42V218H230.486V202.872H229.634C227.882 206.281 225.538 209.288 222.602 211.892C219.667 214.449 216.139 216.461 212.02 217.929C207.901 219.349 203.142 220.06 197.744 220.06ZM206.409 199.179C210.86 199.179 214.79 198.303 218.199 196.551C221.608 194.752 224.283 192.337 226.224 189.307C228.166 186.277 229.136 182.844 229.136 179.009V167.432C228.189 168.047 226.887 168.616 225.23 169.136C223.62 169.61 221.797 170.06 219.761 170.486C217.725 170.865 215.689 171.22 213.653 171.551C211.617 171.835 209.771 172.096 208.114 172.332C204.563 172.853 201.461 173.682 198.81 174.818C196.158 175.955 194.098 177.493 192.631 179.435C191.163 181.329 190.429 183.696 190.429 186.537C190.429 190.656 191.92 193.805 194.903 195.983C197.934 198.114 201.769 199.179 206.409 199.179ZM312.908 72.5455V218H282.652V72.5455H312.908ZM337.144 218V108.909H367.4V218H337.144ZM352.343 94.8466C347.845 94.8466 343.986 93.3551 340.766 90.3722C337.594 87.3419 336.008 83.7197 336.008 79.5057C336.008 75.339 337.594 71.7642 340.766 68.7812C343.986 65.7509 347.845 64.2358 352.343 64.2358C356.841 64.2358 360.676 65.7509 363.849 68.7812C367.068 71.7642 368.678 75.339 368.678 79.5057C368.678 83.7197 367.068 87.3419 363.849 90.3722C360.676 93.3551 356.841 94.8466 352.343 94.8466ZM421.892 154.932V218H391.636V108.909H420.472V128.156H421.75C424.165 121.812 428.213 116.793 433.895 113.099C439.577 109.359 446.466 107.489 454.562 107.489C462.138 107.489 468.743 109.146 474.378 112.46C480.012 115.775 484.392 120.509 487.517 126.665C490.642 132.773 492.205 140.064 492.205 148.54V218H461.949V153.938C461.996 147.261 460.292 142.053 456.835 138.312C453.379 134.525 448.62 132.631 442.56 132.631C438.488 132.631 434.889 133.507 431.764 135.259C428.687 137.01 426.272 139.567 424.52 142.929C422.815 146.243 421.939 150.244 421.892 154.932ZM556.249 219.776C547.963 219.776 540.459 217.645 533.735 213.384C527.059 209.075 521.756 202.754 517.826 194.42C513.943 186.04 512.002 175.765 512.002 163.597C512.002 151.097 514.014 140.704 518.039 132.418C522.064 124.084 527.414 117.858 534.09 113.739C540.814 109.572 548.176 107.489 556.178 107.489C562.286 107.489 567.376 108.53 571.448 110.614C575.567 112.65 578.882 115.206 581.391 118.284C583.948 121.314 585.889 124.297 587.215 127.233H588.138V72.5455H618.323V218H588.494V200.528H587.215C585.795 203.559 583.782 206.565 581.178 209.548C578.621 212.484 575.283 214.922 571.164 216.864C567.092 218.805 562.121 219.776 556.249 219.776ZM565.837 195.699C570.714 195.699 574.834 194.373 578.195 191.722C581.604 189.023 584.209 185.259 586.008 180.429C587.854 175.599 588.778 169.941 588.778 163.455C588.778 156.968 587.878 151.333 586.079 146.551C584.28 141.769 581.675 138.076 578.266 135.472C574.857 132.867 570.714 131.565 565.837 131.565C560.866 131.565 556.675 132.915 553.266 135.614C549.857 138.312 547.277 142.053 545.525 146.835C543.773 151.617 542.897 157.157 542.897 163.455C542.897 169.799 543.773 175.41 545.525 180.287C547.324 185.116 549.905 188.904 553.266 191.651C556.675 194.349 560.866 195.699 565.837 195.699ZM643.199 218V108.909H672.531V127.943H673.668C675.656 121.172 678.994 116.059 683.682 112.602C688.369 109.098 693.767 107.347 699.875 107.347C701.39 107.347 703.024 107.441 704.776 107.631C706.527 107.82 708.066 108.08 709.392 108.412V135.259C707.972 134.832 706.007 134.454 703.497 134.122C700.988 133.791 698.691 133.625 696.608 133.625C692.157 133.625 688.18 134.596 684.676 136.537C681.22 138.431 678.473 141.082 676.438 144.491C674.449 147.901 673.455 151.83 673.455 156.281V218H643.199ZM769.246 220.131C758.214 220.131 748.674 217.787 740.624 213.099C732.622 208.365 726.443 201.783 722.087 193.355C717.731 184.88 715.553 175.055 715.553 163.881C715.553 152.612 717.731 142.763 722.087 134.335C726.443 125.86 732.622 119.278 740.624 114.591C748.674 109.856 758.214 107.489 769.246 107.489C780.279 107.489 789.796 109.856 797.798 114.591C805.847 119.278 812.049 125.86 816.406 134.335C820.762 142.763 822.94 152.612 822.94 163.881C822.94 175.055 820.762 184.88 816.406 193.355C812.049 201.783 805.847 208.365 797.798 213.099C789.796 217.787 780.279 220.131 769.246 220.131ZM769.388 196.693C774.407 196.693 778.598 195.273 781.96 192.432C785.321 189.544 787.854 185.614 789.559 180.642C791.311 175.67 792.187 170.012 792.187 163.668C792.187 157.323 791.311 151.665 789.559 146.693C787.854 141.722 785.321 137.792 781.96 134.903C778.598 132.015 774.407 130.571 769.388 130.571C764.322 130.571 760.061 132.015 756.604 134.903C753.195 137.792 750.615 141.722 748.863 146.693C747.158 151.665 746.306 157.323 746.306 163.668C746.306 170.012 747.158 175.67 748.863 180.642C750.615 185.614 753.195 189.544 756.604 192.432C760.061 195.273 764.322 196.693 769.388 196.693ZM842.613 218V108.909H871.448V128.156H872.727C874.999 121.764 878.787 116.722 884.09 113.028C889.393 109.335 895.738 107.489 903.124 107.489C910.605 107.489 916.974 109.359 922.229 113.099C927.485 116.793 930.989 121.812 932.741 128.156H933.877C936.103 121.906 940.127 116.911 945.951 113.17C951.822 109.383 958.759 107.489 966.761 107.489C976.941 107.489 985.203 110.732 991.548 117.219C997.94 123.658 1001.14 132.796 1001.14 144.634V218H970.951V150.599C970.951 144.539 969.341 139.993 966.121 136.963C962.902 133.933 958.877 132.418 954.048 132.418C948.555 132.418 944.27 134.17 941.192 137.673C938.115 141.13 936.576 145.699 936.576 151.381V218H907.244V149.96C907.244 144.61 905.705 140.348 902.627 137.176C899.597 134.004 895.596 132.418 890.624 132.418C887.263 132.418 884.232 133.27 881.533 134.974C878.882 136.632 876.775 138.975 875.212 142.006C873.65 144.989 872.869 148.492 872.869 152.517V218H842.613ZM1074.75 220.131C1063.53 220.131 1053.87 217.858 1045.77 213.312C1037.72 208.72 1031.52 202.233 1027.17 193.852C1022.81 185.424 1020.63 175.457 1020.63 163.952C1020.63 152.73 1022.81 142.882 1027.17 134.406C1031.52 125.931 1037.65 119.326 1045.56 114.591C1053.51 109.856 1062.84 107.489 1073.54 107.489C1080.74 107.489 1087.44 108.649 1093.64 110.969C1099.89 113.241 1105.34 116.674 1109.98 121.267C1114.67 125.86 1118.31 131.636 1120.92 138.597C1123.52 145.509 1124.82 153.606 1124.82 162.886V171.196H1032.71V152.446H1096.34C1096.34 148.09 1095.39 144.231 1093.5 140.869C1091.61 137.508 1088.98 134.88 1085.62 132.986C1082.3 131.045 1078.44 130.074 1074.04 130.074C1069.45 130.074 1065.38 131.139 1061.82 133.27C1058.32 135.353 1055.57 138.17 1053.59 141.722C1051.6 145.225 1050.58 149.132 1050.53 153.44V171.267C1050.53 176.665 1051.53 181.329 1053.51 185.259C1055.55 189.188 1058.42 192.219 1062.11 194.349C1065.8 196.48 1070.18 197.545 1075.25 197.545C1078.61 197.545 1081.69 197.072 1084.48 196.125C1087.27 195.178 1089.67 193.758 1091.65 191.864C1093.64 189.97 1095.16 187.65 1096.2 184.903L1124.18 186.75C1122.76 193.473 1119.85 199.345 1115.45 204.364C1111.09 209.335 1105.46 213.218 1098.54 216.011C1091.68 218.758 1083.75 220.131 1074.75 220.131ZM168.98 365.469H137.872C137.304 361.444 136.144 357.869 134.392 354.744C132.64 351.572 130.391 348.873 127.645 346.648C124.899 344.422 121.726 342.718 118.128 341.534C114.577 340.35 110.718 339.759 106.551 339.759C99.0227 339.759 92.465 341.629 86.8778 345.369C81.2907 349.062 76.9583 354.46 73.8807 361.562C70.803 368.617 69.2642 377.187 69.2642 387.273C69.2642 397.642 70.803 406.354 73.8807 413.409C77.0057 420.464 81.3617 425.791 86.9489 429.389C92.536 432.988 98.9991 434.787 106.338 434.787C110.457 434.787 114.269 434.242 117.773 433.153C121.324 432.064 124.473 430.478 127.219 428.395C129.965 426.264 132.238 423.684 134.037 420.653C135.884 417.623 137.162 414.167 137.872 410.284L168.98 410.426C168.175 417.102 166.163 423.542 162.943 429.744C159.771 435.9 155.486 441.416 150.088 446.293C144.738 451.122 138.346 454.957 130.912 457.798C123.526 460.592 115.169 461.989 105.841 461.989C92.8674 461.989 81.267 459.053 71.0398 453.182C60.8598 447.311 52.8106 438.812 46.892 427.685C41.0208 416.558 38.0852 403.087 38.0852 387.273C38.0852 371.411 41.0682 357.917 47.0341 346.79C53 335.663 61.0966 327.187 71.3239 321.364C81.5511 315.492 93.0568 312.557 105.841 312.557C114.269 312.557 122.081 313.741 129.278 316.108C136.523 318.475 142.938 321.932 148.526 326.477C154.113 330.975 158.658 336.491 162.162 343.026C165.713 349.56 167.986 357.041 168.98 365.469ZM220.72 396.932V460H190.464V314.545H219.868V370.156H221.146C223.608 363.717 227.586 358.674 233.078 355.028C238.571 351.335 245.46 349.489 253.746 349.489C261.321 349.489 267.927 351.146 273.561 354.46C279.243 357.727 283.646 362.438 286.771 368.594C289.944 374.702 291.506 382.017 291.459 390.54V460H261.203V395.938C261.25 389.214 259.546 383.982 256.089 380.241C252.68 376.501 247.898 374.631 241.743 374.631C237.624 374.631 233.978 375.507 230.805 377.259C227.68 379.01 225.218 381.567 223.419 384.929C221.667 388.243 220.768 392.244 220.72 396.932ZM364.985 462.131C353.763 462.131 344.104 459.858 336.008 455.312C327.959 450.72 321.756 444.233 317.4 435.852C313.044 427.424 310.866 417.457 310.866 405.952C310.866 394.73 313.044 384.882 317.4 376.406C321.756 367.931 327.888 361.326 335.795 356.591C343.749 351.856 353.077 349.489 363.778 349.489C370.975 349.489 377.674 350.649 383.877 352.969C390.127 355.241 395.572 358.674 400.212 363.267C404.9 367.86 408.546 373.636 411.15 380.597C413.754 387.509 415.056 395.606 415.056 404.886V413.196H322.94V394.446H386.576C386.576 390.09 385.629 386.231 383.735 382.869C381.841 379.508 379.213 376.88 375.852 374.986C372.537 373.045 368.678 372.074 364.275 372.074C359.682 372.074 355.61 373.139 352.059 375.27C348.555 377.353 345.809 380.17 343.82 383.722C341.832 387.225 340.814 391.132 340.766 395.44V413.267C340.766 418.665 341.761 423.329 343.749 427.259C345.785 431.188 348.65 434.219 352.343 436.349C356.036 438.48 360.416 439.545 365.482 439.545C368.844 439.545 371.922 439.072 374.715 438.125C377.509 437.178 379.9 435.758 381.888 433.864C383.877 431.97 385.392 429.65 386.434 426.903L414.417 428.75C412.996 435.473 410.085 441.345 405.681 446.364C401.325 451.335 395.691 455.218 388.778 458.011C381.912 460.758 373.981 462.131 364.985 462.131ZM484.09 462.131C472.916 462.131 463.304 459.763 455.255 455.028C447.253 450.246 441.098 443.617 436.789 435.142C432.528 426.667 430.397 416.913 430.397 405.881C430.397 394.706 432.551 384.905 436.86 376.477C441.216 368.002 447.395 361.397 455.397 356.662C463.399 351.88 472.916 349.489 483.948 349.489C493.465 349.489 501.799 351.217 508.948 354.673C516.098 358.13 521.756 362.983 525.923 369.233C530.089 375.483 532.386 382.822 532.812 391.25H504.261C503.456 385.805 501.325 381.425 497.869 378.111C494.46 374.749 489.985 373.068 484.445 373.068C479.758 373.068 475.662 374.347 472.158 376.903C468.702 379.413 466.003 383.082 464.062 387.912C462.121 392.741 461.15 398.589 461.15 405.455C461.15 412.415 462.097 418.333 463.991 423.21C465.932 428.087 468.655 431.804 472.158 434.361C475.662 436.918 479.758 438.196 484.445 438.196C487.902 438.196 491.003 437.486 493.749 436.065C496.543 434.645 498.839 432.585 500.638 429.886C502.485 427.14 503.692 423.849 504.261 420.014H532.812C532.338 428.348 530.066 435.687 525.994 442.031C521.969 448.329 516.406 453.253 509.303 456.804C502.201 460.355 493.797 462.131 484.09 462.131ZM579.598 428.608L579.669 392.315H584.072L619.016 350.909H653.746L606.8 405.739H599.626L579.598 428.608ZM552.183 460V314.545H582.439V460H552.183ZM620.365 460L588.263 412.486L608.433 391.108L655.805 460H620.365ZM713.813 462.131C702.592 462.131 692.933 459.858 684.836 455.312C676.787 450.72 670.584 444.233 666.228 435.852C661.872 427.424 659.694 417.457 659.694 405.952C659.694 394.73 661.872 384.882 666.228 376.406C670.584 367.931 676.716 361.326 684.623 356.591C692.577 351.856 701.905 349.489 712.606 349.489C719.803 349.489 726.503 350.649 732.705 352.969C738.955 355.241 744.4 358.674 749.04 363.267C753.728 367.86 757.374 373.636 759.978 380.597C762.582 387.509 763.884 395.606 763.884 404.886V413.196H671.768V394.446H735.404C735.404 390.09 734.457 386.231 732.563 382.869C730.669 379.508 728.041 376.88 724.68 374.986C721.365 373.045 717.506 372.074 713.103 372.074C708.51 372.074 704.438 373.139 700.887 375.27C697.383 377.353 694.637 380.17 692.648 383.722C690.66 387.225 689.642 391.132 689.594 395.44V413.267C689.594 418.665 690.589 423.329 692.577 427.259C694.613 431.188 697.478 434.219 701.171 436.349C704.864 438.48 709.244 439.545 714.31 439.545C717.672 439.545 720.75 439.072 723.543 438.125C726.337 437.178 728.728 435.758 730.717 433.864C732.705 431.97 734.22 429.65 735.262 426.903L763.245 428.75C761.825 435.473 758.913 441.345 754.509 446.364C750.153 451.335 744.519 455.218 737.606 458.011C730.74 460.758 722.809 462.131 713.813 462.131ZM783.629 460V350.909H812.961V369.943H814.097C816.086 363.172 819.424 358.059 824.112 354.602C828.799 351.098 834.197 349.347 840.305 349.347C841.82 349.347 843.453 349.441 845.205 349.631C846.957 349.82 848.496 350.08 849.822 350.412V377.259C848.401 376.832 846.436 376.454 843.927 376.122C841.417 375.791 839.121 375.625 837.038 375.625C832.587 375.625 828.61 376.596 825.106 378.537C821.649 380.431 818.903 383.082 816.867 386.491C814.879 389.901 813.884 393.83 813.884 398.281V460H783.629ZM870.649 461.847C865.962 461.847 861.937 460.189 858.575 456.875C855.261 453.513 853.604 449.489 853.604 444.801C853.604 440.161 855.261 436.184 858.575 432.869C861.937 429.555 865.962 427.898 870.649 427.898C875.195 427.898 879.172 429.555 882.581 432.869C885.99 436.184 887.695 440.161 887.695 444.801C887.695 447.926 886.89 450.791 885.28 453.395C883.717 455.952 881.658 458.011 879.101 459.574C876.544 461.089 873.727 461.847 870.649 461.847Z"/>
</mask>
<path d="M40.642 218H39.642V219H40.642V218ZM40.642 72.5455V71.5455H39.642V72.5455H40.642ZM126.224 78.8665L125.747 79.7454L125.752 79.7476L126.224 78.8665ZM143.98 96.267L143.103 96.7475L143.107 96.7541L143.98 96.267ZM125.798 164.662L125.336 163.775L125.334 163.776L125.798 164.662ZM60.6705 170.841H59.6705V171.841H60.6705V170.841ZM60.6705 146.196V145.196H59.6705V146.196H60.6705ZM106.906 143.142L107.375 144.025L107.379 144.023L106.906 143.142ZM115.571 134.548L114.686 134.083L114.684 134.087L115.571 134.548ZM115.571 109.193L114.684 109.654L114.687 109.661L114.691 109.668L115.571 109.193ZM106.906 100.741L106.442 101.627L106.45 101.632L106.906 100.741ZM71.3949 97.6875V96.6875H70.3949V97.6875H71.3949ZM71.3949 218V219H72.3949V218H71.3949ZM41.642 218V72.5455H39.642V218H41.642ZM40.642 73.5455H98.0284V71.5455H40.642V73.5455ZM98.0284 73.5455C108.935 73.5455 118.161 75.6282 125.747 79.7454L126.701 77.9876C118.758 73.6767 109.186 71.5455 98.0284 71.5455V73.5455ZM125.752 79.7476C133.353 83.8265 139.128 89.4906 143.103 96.7475L144.857 95.7866C140.688 88.176 134.626 82.2397 126.697 77.9853L125.752 79.7476ZM143.107 96.7541C147.132 103.972 149.159 112.322 149.159 121.835H151.159C151.159 112.03 149.067 103.335 144.853 95.78L143.107 96.7541ZM149.159 121.835C149.159 131.346 147.109 139.695 143.038 146.912L144.78 147.895C149.043 140.339 151.159 131.642 151.159 121.835H149.159ZM143.038 146.912C138.972 154.121 133.081 159.74 125.336 163.775L126.26 165.549C134.33 161.345 140.513 155.459 144.78 147.895L143.038 146.912ZM125.334 163.776C117.65 167.803 108.301 169.841 97.2472 169.841V171.841C108.542 171.841 118.227 169.759 126.263 165.548L125.334 163.776ZM97.2472 169.841H60.6705V171.841H97.2472V169.841ZM61.6705 170.841V146.196H59.6705V170.841H61.6705ZM60.6705 147.196H92.2756V145.196H60.6705V147.196ZM92.2756 147.196C98.3011 147.196 103.353 146.161 107.375 144.025L106.437 142.259C102.789 144.195 98.0872 145.196 92.2756 145.196V147.196ZM107.379 144.023C111.425 141.852 114.465 138.847 116.458 135.009L114.684 134.087C112.889 137.541 110.152 140.265 106.433 142.261L107.379 144.023ZM116.456 135.014C118.483 131.157 119.483 126.756 119.483 121.835H117.483C117.483 126.479 116.541 130.553 114.686 134.083L116.456 135.014ZM119.483 121.835C119.483 116.87 118.484 112.487 116.451 108.718L114.691 109.668C116.54 113.096 117.483 117.141 117.483 121.835H119.483ZM116.458 108.732C114.463 104.89 111.418 101.929 107.362 99.8514L106.45 101.632C110.16 103.532 112.892 106.204 114.684 109.654L116.458 108.732ZM107.371 99.8559C103.303 97.7226 98.2056 96.6875 92.1335 96.6875V98.6875C97.9933 98.6875 102.745 99.6884 106.442 101.627L107.371 99.8559ZM92.1335 96.6875H71.3949V98.6875H92.1335V96.6875ZM70.3949 97.6875V218H72.3949V97.6875H70.3949ZM71.3949 217H40.642V219H71.3949V217ZM179.136 216.438L178.724 217.349L178.731 217.352L179.136 216.438ZM166.21 205.571L165.371 206.114L165.377 206.124L166.21 205.571ZM164.861 172.261L163.981 171.786L163.981 171.786L164.861 172.261ZM173.952 162.318L173.404 161.481L173.404 161.481L173.952 162.318ZM187.02 156.636L186.769 155.668L186.766 155.669L187.02 156.636ZM202.503 153.938L202.599 154.933L202.607 154.932L202.503 153.938ZM217.844 152.091L217.989 153.08L218 153.079L217.844 152.091ZM226.295 149.392L225.736 148.563L225.736 148.563L226.295 149.392ZM224.662 133.27L224.001 134.02L224.007 134.026L224.662 133.27ZM199.733 133.199L200.325 134.005L200.333 133.999L199.733 133.199ZM193.341 142.148L193.26 143.144L194.074 143.211L194.301 142.426L193.341 142.148ZM165.358 139.875L164.38 139.665L164.141 140.779L165.277 140.872L165.358 139.875ZM173.739 122.688L174.496 123.341L174.499 123.337L173.739 122.688ZM189.861 111.466L190.229 112.396L190.232 112.394L189.861 111.466ZM230.273 109.619L230.024 110.588L230.026 110.588L230.273 109.619ZM245.116 116.224L244.547 117.047L244.551 117.05L245.116 116.224ZM255.415 127.73L254.533 128.202L254.535 128.206L255.415 127.73ZM259.179 218V219H260.179V218H259.179ZM230.486 218H229.486V219H230.486V218ZM230.486 202.872H231.486V201.872H230.486V202.872ZM229.634 202.872V201.872H229.023L228.744 202.415L229.634 202.872ZM222.602 211.892L223.259 212.646L223.266 212.64L222.602 211.892ZM212.02 217.929L212.346 218.874L212.356 218.871L212.02 217.929ZM218.199 196.551L218.656 197.441L218.666 197.436L218.199 196.551ZM226.224 189.307L225.382 188.767L225.382 188.767L226.224 189.307ZM229.136 167.432H230.136V165.589L228.591 166.593L229.136 167.432ZM225.23 169.136L225.512 170.096L225.521 170.093L225.53 170.09L225.23 169.136ZM219.761 170.486L219.944 171.469L219.955 171.467L219.966 171.465L219.761 170.486ZM213.653 171.551L213.792 172.542L213.803 172.54L213.814 172.538L213.653 171.551ZM208.114 172.332L207.972 171.342L207.969 171.343L208.114 172.332ZM198.81 174.818L199.204 175.737L199.204 175.737L198.81 174.818ZM192.631 179.435L193.421 180.047L193.428 180.038L192.631 179.435ZM194.903 195.983L194.314 196.791L194.321 196.796L194.328 196.801L194.903 195.983ZM197.744 219.06C190.9 219.06 184.839 217.873 179.542 215.523L178.731 217.352C184.323 219.832 190.668 221.06 197.744 221.06V219.06ZM179.548 215.526C174.267 213.138 170.108 209.637 167.044 205.018L165.377 206.124C168.658 211.069 173.115 214.812 178.724 217.349L179.548 215.526ZM167.05 205.028C164.053 200.396 162.523 194.584 162.523 187.531H160.523C160.523 194.873 162.117 201.087 165.371 206.114L167.05 205.028ZM162.523 187.531C162.523 181.589 163.614 176.673 165.741 172.737L163.981 171.786C161.657 176.088 160.523 181.352 160.523 187.531H162.523ZM165.741 172.737C167.889 168.76 170.806 165.571 174.499 163.155L173.404 161.481C169.427 164.084 166.284 167.524 163.981 171.786L165.741 172.737ZM174.499 163.155C178.236 160.71 182.491 158.857 187.273 157.604L186.766 155.669C181.795 156.972 177.338 158.907 173.404 161.481L174.499 163.155ZM187.271 157.604C192.141 156.34 197.25 155.449 202.599 154.933L202.407 152.942C196.96 153.468 191.747 154.376 186.769 155.668L187.271 157.604ZM202.607 154.932C208.958 154.269 214.087 153.651 217.989 153.08L217.699 151.101C213.836 151.667 208.737 152.281 202.399 152.943L202.607 154.932ZM218 153.079C221.924 152.457 224.918 151.529 226.855 150.221L225.736 148.563C224.169 149.622 221.529 150.494 217.687 151.103L218 153.079ZM226.855 150.221C228.913 148.831 229.923 146.751 229.923 144.136H227.923C227.923 146.162 227.182 147.586 225.736 148.563L226.855 150.221ZM229.923 144.136V143.71H227.923V144.136H229.923ZM229.923 143.71C229.923 138.985 228.42 135.204 225.317 132.514L224.007 134.026C226.586 136.26 227.923 139.44 227.923 143.71H229.923ZM225.323 132.52C222.287 129.844 218.041 128.577 212.73 128.577V130.577C217.742 130.577 221.45 131.772 224.001 134.02L225.323 132.52ZM212.73 128.577C207.144 128.577 202.578 129.815 199.133 132.399L200.333 133.999C203.328 131.753 207.426 130.577 212.73 130.577V128.577ZM199.141 132.393C195.756 134.882 193.487 138.045 192.38 141.87L194.301 142.426C195.278 139.054 197.27 136.251 200.325 134.005L199.141 132.393ZM193.422 141.151L165.439 138.878L165.277 140.872L193.26 143.144L193.422 141.151ZM166.336 140.085C167.723 133.609 170.446 128.035 174.496 123.341L172.981 122.034C168.698 126.999 165.833 132.883 164.38 139.665L166.336 140.085ZM174.499 123.337C178.549 118.597 183.783 114.946 190.229 112.396L189.493 110.536C182.776 113.194 177.262 117.025 172.978 122.038L174.499 123.337ZM190.232 112.394C196.72 109.799 204.26 108.489 212.872 108.489V106.489C204.06 106.489 196.259 107.83 189.489 110.537L190.232 112.394ZM212.872 108.489C218.854 108.489 224.57 109.19 230.024 110.588L230.521 108.651C224.895 107.208 219.012 106.489 212.872 106.489V108.489ZM230.026 110.588C235.509 111.983 240.346 114.138 244.547 117.047L245.686 115.402C241.27 112.345 236.21 110.097 230.519 108.65L230.026 110.588ZM244.551 117.05C248.774 119.941 252.099 123.655 254.533 128.202L256.296 127.258C253.712 122.43 250.171 118.474 245.681 115.399L244.551 117.05ZM254.535 128.206C256.949 132.67 258.179 138.062 258.179 144.42H260.179C260.179 137.805 258.899 132.071 256.294 127.254L254.535 128.206ZM258.179 144.42V218H260.179V144.42H258.179ZM259.179 217H230.486V219H259.179V217ZM231.486 218V202.872H229.486V218H231.486ZM230.486 201.872H229.634V203.872H230.486V201.872ZM228.744 202.415C227.05 205.711 224.784 208.62 221.939 211.144L223.266 212.64C226.292 209.956 228.713 206.851 230.523 203.329L228.744 202.415ZM221.945 211.138C219.115 213.603 215.7 215.556 211.684 216.987L212.356 218.871C216.578 217.366 220.218 215.295 223.259 212.646L221.945 211.138ZM211.694 216.984C207.701 218.36 203.057 219.06 197.744 219.06V221.06C203.228 221.06 208.1 220.338 212.346 218.874L211.694 216.984ZM206.409 200.179C210.993 200.179 215.084 199.276 218.656 197.441L217.742 195.662C214.495 197.33 210.727 198.179 206.409 198.179V200.179ZM218.666 197.436C222.216 195.562 225.025 193.032 227.066 189.846L225.382 188.767C223.541 191.642 221 193.942 217.732 195.667L218.666 197.436ZM227.066 189.846C229.118 186.644 230.136 183.022 230.136 179.009H228.136C228.136 182.666 227.214 185.909 225.382 188.767L227.066 189.846ZM230.136 179.009V167.432H228.136V179.009H230.136ZM228.591 166.593C227.75 167.14 226.542 167.676 224.93 168.182L225.53 170.09C227.233 169.555 228.629 168.954 229.681 168.27L228.591 166.593ZM224.948 168.177C223.369 168.641 221.572 169.085 219.557 169.507L219.966 171.465C222.022 171.034 223.872 170.578 225.512 170.096L224.948 168.177ZM219.578 169.503C217.55 169.88 215.521 170.234 213.493 170.564L213.814 172.538C215.858 172.205 217.901 171.849 219.944 171.469L219.578 169.503ZM213.515 170.561C211.478 170.845 209.631 171.106 207.972 171.342L208.255 173.322C209.911 173.086 211.756 172.826 213.792 172.542L213.515 170.561ZM207.969 171.343C204.352 171.873 201.163 172.721 198.416 173.899L199.204 175.737C201.759 174.642 204.773 173.833 208.259 173.322L207.969 171.343ZM198.416 173.899C195.634 175.091 193.424 176.728 191.833 178.832L193.428 180.038C194.773 178.259 196.682 176.818 199.204 175.737L198.416 173.899ZM191.84 178.822C190.213 180.922 189.429 183.517 189.429 186.537H191.429C191.429 183.875 192.113 181.735 193.421 180.047L191.84 178.822ZM189.429 186.537C189.429 190.933 191.04 194.401 194.314 196.791L195.493 195.175C192.801 193.209 191.429 190.38 191.429 186.537H189.429ZM194.328 196.801C197.565 199.077 201.615 200.179 206.409 200.179V198.179C201.922 198.179 198.302 197.15 195.479 195.165L194.328 196.801ZM312.908 72.5455H313.908V71.5455H312.908V72.5455ZM312.908 218V219H313.908V218H312.908ZM282.652 218H281.652V219H282.652V218ZM282.652 72.5455V71.5455H281.652V72.5455H282.652ZM311.908 72.5455V218H313.908V72.5455H311.908ZM312.908 217H282.652V219H312.908V217ZM283.652 218V72.5455H281.652V218H283.652ZM282.652 73.5455H312.908V71.5455H282.652V73.5455ZM337.144 218H336.144V219H337.144V218ZM337.144 108.909V107.909H336.144V108.909H337.144ZM367.4 108.909H368.4V107.909H367.4V108.909ZM367.4 218V219H368.4V218H367.4ZM340.766 90.3722L340.076 91.0953L340.081 91.1005L340.087 91.1057L340.766 90.3722ZM340.766 68.7812L341.451 69.5098L341.452 69.5094L340.766 68.7812ZM363.849 68.7812L363.158 69.5044L363.164 69.5096L363.169 69.5148L363.849 68.7812ZM363.849 90.3722L364.534 91.1007L364.534 91.1004L363.849 90.3722ZM338.144 218V108.909H336.144V218H338.144ZM337.144 109.909H367.4V107.909H337.144V109.909ZM366.4 108.909V218H368.4V108.909H366.4ZM367.4 217H337.144V219H367.4V217ZM352.343 93.8466C348.09 93.8466 344.476 92.4456 341.446 89.6386L340.087 91.1057C343.496 94.2646 347.6 95.8466 352.343 95.8466V93.8466ZM341.457 89.649C338.473 86.7987 337.008 83.4342 337.008 79.5057H335.008C335.008 84.0052 336.715 87.885 340.076 91.0953L341.457 89.649ZM337.008 79.5057C337.008 75.6286 338.47 72.3133 341.451 69.5098L340.081 68.0527C336.718 71.2151 335.008 75.0494 335.008 79.5057H337.008ZM341.452 69.5094C344.482 66.6571 348.095 65.2358 352.343 65.2358V63.2358C347.595 63.2358 343.49 64.8448 340.081 68.0531L341.452 69.5094ZM352.343 65.2358C356.591 65.2358 360.177 66.6567 363.158 69.5044L364.539 68.0581C361.176 64.8452 357.091 63.2358 352.343 63.2358V65.2358ZM363.169 69.5148C366.197 72.3199 367.678 75.6338 367.678 79.5057H369.678C369.678 75.0442 367.94 71.2085 364.528 68.0477L363.169 69.5148ZM367.678 79.5057C367.678 83.4291 366.193 86.7922 363.163 89.644L364.534 91.1004C367.943 87.8915 369.678 84.0103 369.678 79.5057H367.678ZM363.164 89.6436C360.183 92.4459 356.596 93.8466 352.343 93.8466V95.8466C357.086 95.8466 361.169 94.2643 364.534 91.1007L363.164 89.6436ZM421.892 154.932L420.892 154.922V154.932H421.892ZM421.892 218V219H422.892V218H421.892ZM391.636 218H390.636V219H391.636V218ZM391.636 108.909V107.909H390.636V108.909H391.636ZM420.472 108.909H421.472V107.909H420.472V108.909ZM420.472 128.156H419.472V129.156H420.472V128.156ZM421.75 128.156V129.156H422.439L422.685 128.512L421.75 128.156ZM433.895 113.099L434.44 113.938L434.445 113.935L433.895 113.099ZM474.378 112.46L474.885 111.598L474.378 112.46ZM487.517 126.665L486.625 127.117L486.627 127.12L487.517 126.665ZM492.205 218V219H493.205V218H492.205ZM461.949 218H460.949V219H461.949V218ZM461.949 153.938L460.949 153.93V153.938H461.949ZM456.835 138.312L456.097 138.987L456.101 138.991L456.835 138.312ZM431.764 135.259L431.275 134.386L431.27 134.389L431.764 135.259ZM424.52 142.929L423.633 142.467L423.631 142.472L424.52 142.929ZM420.892 154.932V218H422.892V154.932H420.892ZM421.892 217H391.636V219H421.892V217ZM392.636 218V108.909H390.636V218H392.636ZM391.636 109.909H420.472V107.909H391.636V109.909ZM419.472 108.909V128.156H421.472V108.909H419.472ZM420.472 129.156H421.75V127.156H420.472V129.156ZM422.685 128.512C425.024 122.365 428.936 117.515 434.44 113.938L433.35 112.261C427.49 116.07 423.305 121.258 420.815 127.801L422.685 128.512ZM434.445 113.935C439.934 110.321 446.624 108.489 454.562 108.489V106.489C446.308 106.489 439.219 108.397 433.345 112.264L434.445 113.935ZM454.562 108.489C461.989 108.489 468.413 110.112 473.871 113.322L474.885 111.598C469.074 108.18 462.288 106.489 454.562 106.489V108.489ZM473.871 113.322C479.331 116.534 483.582 121.123 486.625 127.117L488.409 126.212C485.202 119.896 480.693 115.015 474.885 111.598L473.871 113.322ZM486.627 127.12C489.665 133.058 491.205 140.186 491.205 148.54H493.205C493.205 139.943 491.619 132.488 488.407 126.209L486.627 127.12ZM491.205 148.54V218H493.205V148.54H491.205ZM492.205 217H461.949V219H492.205V217ZM462.949 218V153.938H460.949V218H462.949ZM462.949 153.945C462.997 147.096 461.247 141.613 457.57 137.634L456.101 138.991C459.337 142.493 460.995 147.427 460.949 153.93L462.949 153.945ZM457.574 137.638C453.893 133.605 448.846 131.631 442.56 131.631V133.631C448.395 133.631 452.864 135.444 456.097 138.987L457.574 137.638ZM442.56 131.631C438.34 131.631 434.569 132.54 431.275 134.386L432.253 136.131C435.209 134.474 438.635 133.631 442.56 133.631V131.631ZM431.27 134.389C428.013 136.243 425.467 138.947 423.633 142.467L425.407 143.391C427.076 140.187 429.36 137.778 432.259 136.128L431.27 134.389ZM423.631 142.472C421.839 145.956 420.941 150.118 420.892 154.922L422.892 154.942C422.938 150.371 423.792 146.531 425.409 143.386L423.631 142.472ZM533.735 213.384L533.193 214.224L533.2 214.228L533.735 213.384ZM517.826 194.42L516.919 194.841L516.922 194.847L517.826 194.42ZM518.039 132.418L518.939 132.855L518.94 132.853L518.039 132.418ZM534.09 113.739L534.615 114.59L534.617 114.589L534.09 113.739ZM571.448 110.614L570.993 111.504L571.005 111.51L571.448 110.614ZM581.391 118.284L580.616 118.916L580.622 118.923L580.627 118.929L581.391 118.284ZM587.215 127.233L586.304 127.645L586.57 128.233H587.215V127.233ZM588.138 127.233V128.233H589.138V127.233H588.138ZM588.138 72.5455V71.5455H587.138V72.5455H588.138ZM618.323 72.5455H619.323V71.5455H618.323V72.5455ZM618.323 218V219H619.323V218H618.323ZM588.494 218H587.494V219H588.494V218ZM588.494 200.528H589.494V199.528H588.494V200.528ZM587.215 200.528V199.528H586.58L586.31 200.104L587.215 200.528ZM581.178 209.548L580.425 208.891L580.424 208.892L581.178 209.548ZM571.164 216.864L570.738 215.959L570.734 215.961L571.164 216.864ZM578.195 191.722L578.815 192.507L578.816 192.506L578.195 191.722ZM586.008 180.429L585.074 180.072L585.071 180.08L586.008 180.429ZM586.079 146.551L587.015 146.199L587.015 146.199L586.079 146.551ZM553.266 135.614L552.646 134.83L552.646 134.83L553.266 135.614ZM545.525 180.287L544.584 180.625L544.588 180.636L545.525 180.287ZM553.266 191.651L552.634 192.425L552.64 192.43L552.646 192.435L553.266 191.651ZM556.249 218.776C548.145 218.776 540.827 216.694 534.27 212.539L533.2 214.228C540.09 218.595 547.782 220.776 556.249 220.776V218.776ZM534.277 212.543C527.782 208.351 522.594 202.186 518.73 193.994L516.922 194.847C520.918 203.322 526.336 209.798 533.193 214.224L534.277 212.543ZM518.733 194C514.928 185.786 513.002 175.664 513.002 163.597H511.002C511.002 175.866 512.959 186.294 516.919 194.841L518.733 194ZM513.002 163.597C513.002 151.197 514.999 140.965 518.939 132.855L517.14 131.981C513.03 140.442 511.002 150.996 511.002 163.597H513.002ZM518.94 132.853C522.896 124.659 528.129 118.592 534.615 114.59L533.565 112.888C526.699 117.124 521.231 123.509 517.139 131.983L518.94 132.853ZM534.617 114.589C541.18 110.521 548.36 108.489 556.178 108.489V106.489C547.993 106.489 540.447 108.623 533.563 112.889L534.617 114.589ZM556.178 108.489C562.179 108.489 567.101 109.513 570.993 111.504L571.904 109.723C567.651 107.548 562.394 106.489 556.178 106.489V108.489ZM571.005 111.51C575.016 113.493 578.21 115.965 580.616 118.916L582.166 117.652C579.553 114.447 576.119 111.807 571.891 109.717L571.005 111.51ZM580.627 118.929C583.137 121.904 585.024 124.81 586.304 127.645L588.127 126.821C586.755 123.785 584.759 120.725 582.156 117.639L580.627 118.929ZM587.215 128.233H588.138V126.233H587.215V128.233ZM589.138 127.233V72.5455H587.138V127.233H589.138ZM588.138 73.5455H618.323V71.5455H588.138V73.5455ZM617.323 72.5455V218H619.323V72.5455H617.323ZM618.323 217H588.494V219H618.323V217ZM589.494 218V200.528H587.494V218H589.494ZM588.494 199.528H587.215V201.528H588.494V199.528ZM586.31 200.104C584.935 203.036 582.979 205.965 580.425 208.891L581.932 210.206C584.586 207.165 586.654 204.081 588.121 200.953L586.31 200.104ZM580.424 208.892C577.972 211.707 574.753 214.067 570.738 215.959L571.59 217.768C575.814 215.778 579.27 213.261 581.932 210.205L580.424 208.892ZM570.734 215.961C566.83 217.822 562.015 218.776 556.249 218.776V220.776C562.226 220.776 567.354 219.788 571.594 217.766L570.734 215.961ZM565.837 196.699C570.906 196.699 575.252 195.316 578.815 192.507L577.576 190.936C574.415 193.43 570.522 194.699 565.837 194.699V196.699ZM578.816 192.506C582.393 189.674 585.094 185.747 586.945 180.778L585.071 180.08C583.323 184.77 580.816 188.372 577.575 190.938L578.816 192.506ZM586.942 180.786C588.842 175.818 589.778 170.034 589.778 163.455H587.778C587.778 169.849 586.867 175.381 585.074 180.072L586.942 180.786ZM589.778 163.455C589.778 156.879 588.866 151.12 587.015 146.199L585.143 146.903C586.89 151.547 587.778 157.057 587.778 163.455H589.778ZM587.015 146.199C585.162 141.275 582.458 137.415 578.873 134.677L577.659 136.266C580.893 138.737 583.397 142.263 585.143 146.903L587.015 146.199ZM578.873 134.677C575.266 131.922 570.902 130.565 565.837 130.565V132.565C570.526 132.565 574.448 133.813 577.659 136.266L578.873 134.677ZM565.837 130.565C560.674 130.565 556.256 131.971 552.646 134.83L553.887 136.398C557.095 133.858 561.057 132.565 565.837 132.565V130.565ZM552.646 134.83C549.069 137.661 546.39 141.566 544.586 146.491L546.464 147.179C548.163 142.54 550.646 138.964 553.887 136.398L552.646 134.83ZM544.586 146.491C542.785 151.406 541.897 157.067 541.897 163.455H543.897C543.897 157.248 544.761 151.829 546.464 147.179L544.586 146.491ZM541.897 163.455C541.897 169.89 542.785 175.618 544.584 180.625L546.466 179.949C544.761 175.202 543.897 169.709 543.897 163.455H541.897ZM544.588 180.636C546.437 185.601 549.111 189.547 552.634 192.425L553.899 190.876C550.698 188.262 548.211 184.632 546.462 179.938L544.588 180.636ZM552.646 192.435C556.256 195.293 560.674 196.699 565.837 196.699V194.699C561.057 194.699 557.095 193.406 553.887 190.867L552.646 192.435ZM643.199 218H642.199V219H643.199V218ZM643.199 108.909V107.909H642.199V108.909H643.199ZM672.531 108.909H673.531V107.909H672.531V108.909ZM672.531 127.943H671.531V128.943H672.531V127.943ZM673.668 127.943V128.943H674.416L674.627 128.225L673.668 127.943ZM683.682 112.602L684.275 113.407L684.281 113.403L683.682 112.602ZM704.776 107.631L704.883 106.636L704.883 106.636L704.776 107.631ZM709.392 108.412H710.392V107.631L709.635 107.442L709.392 108.412ZM709.392 135.259L709.105 136.216L710.392 136.603V135.259H709.392ZM684.676 136.537L685.157 137.414L685.161 137.412L684.676 136.537ZM676.438 144.491L675.579 143.979L675.574 143.988L676.438 144.491ZM673.455 218V219H674.455V218H673.455ZM644.199 218V108.909H642.199V218H644.199ZM643.199 109.909H672.531V107.909H643.199V109.909ZM671.531 108.909V127.943H673.531V108.909H671.531ZM672.531 128.943H673.668V126.943H672.531V128.943ZM674.627 128.225C676.568 121.618 679.798 116.708 684.275 113.407L683.088 111.797C678.19 115.409 674.745 120.726 672.708 127.661L674.627 128.225ZM684.281 113.403C688.787 110.035 693.973 108.347 699.875 108.347V106.347C693.561 106.347 687.951 108.162 683.083 111.801L684.281 113.403ZM699.875 108.347C701.349 108.347 702.946 108.439 704.668 108.625L704.883 106.636C703.101 106.444 701.431 106.347 699.875 106.347V108.347ZM704.668 108.625C706.387 108.811 707.879 109.064 709.15 109.382L709.635 107.442C708.254 107.097 706.668 106.829 704.883 106.636L704.668 108.625ZM708.392 108.412V135.259H710.392V108.412H708.392ZM709.679 134.301C708.184 133.852 706.159 133.465 703.628 133.131L703.366 135.114C705.854 135.442 707.759 135.813 709.105 136.216L709.679 134.301ZM703.628 133.131C701.084 132.795 698.743 132.625 696.608 132.625V134.625C698.639 134.625 700.891 134.787 703.366 135.114L703.628 133.131ZM696.608 132.625C692.007 132.625 687.86 133.63 684.191 135.662L685.161 137.412C688.5 135.561 692.308 134.625 696.608 134.625V132.625ZM684.196 135.66C680.582 137.64 677.706 140.418 675.579 143.979L677.296 145.004C679.241 141.747 681.858 139.222 685.157 137.414L684.196 135.66ZM675.574 143.988C673.485 147.568 672.455 151.677 672.455 156.281H674.455C674.455 151.984 675.413 148.233 677.301 144.995L675.574 143.988ZM672.455 156.281V218H674.455V156.281H672.455ZM673.455 217H643.199V219H673.455V217ZM740.624 213.099L740.115 213.96L740.121 213.964L740.624 213.099ZM722.087 193.355L721.198 193.812L721.199 193.814L722.087 193.355ZM722.087 134.335L722.976 134.794L722.977 134.792L722.087 134.335ZM740.624 114.591L741.13 115.454L741.131 115.453L740.624 114.591ZM797.798 114.591L797.288 115.452L797.294 115.455L797.798 114.591ZM816.406 134.335L815.516 134.792L815.517 134.794L816.406 134.335ZM816.406 193.355L817.294 193.814L817.295 193.812L816.406 193.355ZM797.798 213.099L798.303 213.962L798.305 213.961L797.798 213.099ZM781.96 192.432L782.605 193.196L782.611 193.19L781.96 192.432ZM789.559 180.642L788.616 180.31L788.613 180.318L789.559 180.642ZM789.559 146.693L788.613 147.018L788.616 147.026L789.559 146.693ZM756.604 134.903L755.963 134.136L755.958 134.14L756.604 134.903ZM748.863 146.693L747.92 146.361L747.917 146.369L748.863 146.693ZM748.863 180.642L747.917 180.966L747.92 180.974L748.863 180.642ZM756.604 192.432L755.958 193.195L755.964 193.2L755.969 193.204L756.604 192.432ZM769.246 219.131C758.358 219.131 748.998 216.819 741.128 212.235L740.121 213.964C748.349 218.755 758.07 221.131 769.246 221.131V219.131ZM741.134 212.239C733.297 207.602 727.247 201.161 722.976 192.896L721.199 193.814C725.639 202.405 731.948 209.128 740.115 213.96L741.134 212.239ZM722.977 192.898C718.705 184.587 716.553 174.923 716.553 163.881H714.553C714.553 175.187 716.758 185.173 721.198 193.812L722.977 192.898ZM716.553 163.881C716.553 152.742 718.706 143.056 722.976 134.794L721.199 133.876C716.757 142.47 714.553 152.482 714.553 163.881H716.553ZM722.977 134.792C727.249 126.481 733.296 120.042 741.13 115.454L740.119 113.728C731.948 118.514 725.638 125.239 721.198 133.878L722.977 134.792ZM741.131 115.453C749.001 110.824 758.36 108.489 769.246 108.489V106.489C758.069 106.489 748.346 108.889 740.117 113.729L741.131 115.453ZM769.246 108.489C780.133 108.489 789.467 110.824 797.288 115.452L798.307 113.73C790.124 108.888 780.424 106.489 769.246 106.489V108.489ZM797.294 115.455C805.175 120.044 811.245 126.483 815.516 134.792L817.295 133.878C812.854 125.237 806.519 118.513 798.301 113.727L797.294 115.455ZM815.517 134.794C819.787 143.056 821.94 152.742 821.94 163.881H823.94C823.94 152.482 821.736 142.47 817.294 133.876L815.517 134.794ZM821.94 163.881C821.94 174.923 819.788 184.587 815.516 192.898L817.295 193.812C821.735 185.173 823.94 175.187 823.94 163.881H821.94ZM815.517 192.896C811.246 201.159 805.175 207.6 797.291 212.237L798.305 213.961C806.519 209.129 812.853 202.407 817.294 193.814L815.517 192.896ZM797.292 212.237C789.47 216.819 780.135 219.131 769.246 219.131V221.131C780.422 221.131 790.121 218.755 798.303 213.962L797.292 212.237ZM769.388 197.693C774.609 197.693 779.038 196.21 782.605 193.196L781.314 191.668C778.158 194.335 774.206 195.693 769.388 195.693V197.693ZM782.611 193.19C786.131 190.166 788.753 186.075 790.505 180.966L788.613 180.318C786.955 185.152 784.511 188.921 781.308 191.673L782.611 193.19ZM790.502 180.974C792.298 175.877 793.187 170.103 793.187 163.668H791.187C791.187 169.921 790.323 175.464 788.616 180.31L790.502 180.974ZM793.187 163.668C793.187 157.232 792.298 151.458 790.502 146.361L788.616 147.026C790.323 151.871 791.187 157.414 791.187 163.668H793.187ZM790.505 146.369C788.753 141.26 786.131 137.169 782.611 134.145L781.308 135.662C784.511 138.414 786.955 142.183 788.613 147.018L790.505 146.369ZM782.611 134.145C779.044 131.08 774.613 129.571 769.388 129.571V131.571C774.202 131.571 778.152 132.95 781.308 135.662L782.611 134.145ZM769.388 129.571C764.119 129.571 759.622 131.079 755.963 134.136L757.246 135.671C760.5 132.952 764.526 131.571 769.388 131.571V129.571ZM755.958 134.14C752.391 137.162 749.72 141.252 747.92 146.361L749.806 147.026C751.51 142.191 754 138.421 757.251 135.666L755.958 134.14ZM747.917 146.369C746.17 151.464 745.306 157.235 745.306 163.668H747.306C747.306 157.411 748.147 151.866 749.809 147.018L747.917 146.369ZM745.306 163.668C745.306 170.101 746.17 175.871 747.917 180.966L749.809 180.318C748.147 175.47 747.306 169.924 747.306 163.668H745.306ZM747.92 180.974C749.72 186.083 752.391 190.173 755.958 193.195L757.251 191.669C754 188.914 751.51 185.144 749.806 180.31L747.92 180.974ZM755.969 193.204C759.628 196.212 764.123 197.693 769.388 197.693V195.693C764.521 195.693 760.493 194.334 757.239 191.659L755.969 193.204ZM842.613 218H841.613V219H842.613V218ZM842.613 108.909V107.909H841.613V108.909H842.613ZM871.448 108.909H872.448V107.909H871.448V108.909ZM871.448 128.156H870.448V129.156H871.448V128.156ZM872.727 128.156V129.156H873.432L873.669 128.491L872.727 128.156ZM884.09 113.028L883.519 112.208L883.519 112.208L884.09 113.028ZM922.229 113.099L921.65 113.914L921.654 113.918L922.229 113.099ZM932.741 128.156L931.777 128.422L931.979 129.156H932.741V128.156ZM933.877 128.156V129.156H934.583L934.819 128.492L933.877 128.156ZM945.951 113.17L946.491 114.012L946.493 114.011L945.951 113.17ZM991.548 117.219L990.833 117.918L990.838 117.923L991.548 117.219ZM1001.14 218V219H1002.14V218H1001.14ZM970.951 218H969.951V219H970.951V218ZM966.121 136.963L965.436 137.691L965.436 137.691L966.121 136.963ZM941.192 137.673L941.939 138.338L941.944 138.333L941.192 137.673ZM936.576 218V219H937.576V218H936.576ZM907.244 218H906.244V219H907.244V218ZM902.627 137.176L901.904 137.867L901.909 137.872L902.627 137.176ZM881.533 134.974L882.063 135.822L882.067 135.82L881.533 134.974ZM875.212 142.006L876.098 142.47L876.101 142.464L875.212 142.006ZM872.869 218V219H873.869V218H872.869ZM843.613 218V108.909H841.613V218H843.613ZM842.613 109.909H871.448V107.909H842.613V109.909ZM870.448 108.909V128.156H872.448V108.909H870.448ZM871.448 129.156H872.727V127.156H871.448V129.156ZM873.669 128.491C875.875 122.285 879.539 117.417 884.662 113.849L883.519 112.208C878.036 116.026 874.123 121.243 871.784 127.821L873.669 128.491ZM884.662 113.849C889.774 110.289 895.912 108.489 903.124 108.489V106.489C895.564 106.489 889.013 108.382 883.519 112.208L884.662 113.849ZM903.124 108.489C910.432 108.489 916.589 110.313 921.65 113.914L922.809 112.285C917.358 108.405 910.779 106.489 903.124 106.489V108.489ZM921.654 113.918C926.715 117.474 930.085 122.295 931.777 128.422L933.705 127.89C931.893 121.328 928.255 116.111 922.804 112.281L921.654 113.918ZM932.741 129.156H933.877V127.156H932.741V129.156ZM934.819 128.492C936.967 122.46 940.845 117.638 946.491 114.012L945.411 112.329C939.409 116.184 935.238 121.353 932.935 127.821L934.819 128.492ZM946.493 114.011C952.18 110.342 958.922 108.489 966.761 108.489V106.489C958.595 106.489 951.464 108.424 945.409 112.33L946.493 114.011ZM966.761 108.489C976.707 108.489 984.7 111.648 990.833 117.918L992.262 116.52C985.706 109.816 977.174 106.489 966.761 106.489V108.489ZM990.838 117.923C996.992 124.123 1000.14 132.977 1000.14 144.634H1002.14C1002.14 132.616 998.887 123.193 992.257 116.514L990.838 117.923ZM1000.14 144.634V218H1002.14V144.634H1000.14ZM1001.14 217H970.951V219H1001.14V217ZM971.951 218V150.599H969.951V218H971.951ZM971.951 150.599C971.951 144.369 970.293 139.516 966.807 136.235L965.436 137.691C968.389 140.471 969.951 144.709 969.951 150.599H971.951ZM966.807 136.235C963.384 133.013 959.106 131.418 954.048 131.418V133.418C958.648 133.418 962.42 134.852 965.436 137.691L966.807 136.235ZM954.048 131.418C948.324 131.418 943.743 133.254 940.441 137.013L941.944 138.333C944.797 135.085 948.787 133.418 954.048 133.418V131.418ZM940.446 137.008C937.17 140.687 935.576 145.512 935.576 151.381H937.576C937.576 145.886 939.06 141.572 941.939 138.338L940.446 137.008ZM935.576 151.381V218H937.576V151.381H935.576ZM936.576 217H907.244V219H936.576V217ZM908.244 218V149.96H906.244V218H908.244ZM908.244 149.96C908.244 144.408 906.64 139.877 903.345 136.48L901.909 137.872C904.769 140.82 906.244 144.812 906.244 149.96H908.244ZM903.35 136.485C900.105 133.088 895.829 131.418 890.624 131.418V133.418C895.363 133.418 899.088 134.919 901.904 137.867L903.35 136.485ZM890.624 131.418C887.084 131.418 883.867 132.318 880.999 134.129L882.067 135.82C884.598 134.222 887.441 133.418 890.624 133.418V131.418ZM881.003 134.126C878.186 135.887 875.961 138.372 874.324 141.547L876.101 142.464C877.589 139.579 879.578 137.376 882.063 135.822L881.003 134.126ZM874.327 141.542C872.676 144.693 871.869 148.362 871.869 152.517H873.869C873.869 148.623 874.624 145.284 876.098 142.47L874.327 141.542ZM871.869 152.517V218H873.869V152.517H871.869ZM872.869 217H842.613V219H872.869V217ZM1045.77 213.312L1045.28 214.181L1045.28 214.184L1045.77 213.312ZM1027.17 193.852L1026.28 194.311L1026.28 194.313L1027.17 193.852ZM1027.17 134.406L1026.28 133.949L1026.28 133.949L1027.17 134.406ZM1045.56 114.591L1045.05 113.732L1045.05 113.733L1045.56 114.591ZM1093.64 110.969L1093.29 111.905L1093.3 111.909L1093.64 110.969ZM1109.98 121.267L1109.27 121.978L1109.28 121.981L1109.98 121.267ZM1120.92 138.597L1119.98 138.947L1119.98 138.949L1120.92 138.597ZM1124.82 171.196V172.196H1125.82V171.196H1124.82ZM1032.71 171.196H1031.71V172.196H1032.71V171.196ZM1032.71 152.446V151.446H1031.71V152.446H1032.71ZM1096.34 152.446V153.446H1097.34V152.446H1096.34ZM1093.5 140.869L1092.63 141.36L1092.63 141.36L1093.5 140.869ZM1085.62 132.986L1085.11 133.849L1085.12 133.853L1085.13 133.857L1085.62 132.986ZM1061.82 133.27L1062.34 134.129L1062.34 134.127L1061.82 133.27ZM1053.59 141.722L1054.46 142.215L1054.46 142.21L1053.59 141.722ZM1050.53 153.44L1049.53 153.429V153.44H1050.53ZM1053.51 185.259L1052.62 185.71L1052.63 185.719L1053.51 185.259ZM1084.48 196.125L1084.16 195.178L1084.16 195.178L1084.48 196.125ZM1091.65 191.864L1090.96 191.139L1090.96 191.139L1091.65 191.864ZM1096.2 184.903L1096.27 183.906L1095.53 183.857L1095.26 184.549L1096.2 184.903ZM1124.18 186.75L1125.16 186.957L1125.4 185.828L1124.25 185.752L1124.18 186.75ZM1115.45 204.364L1114.7 203.704L1114.69 203.705L1115.45 204.364ZM1098.54 216.011L1098.91 216.94L1098.92 216.939L1098.54 216.011ZM1074.75 219.131C1063.66 219.131 1054.18 216.886 1046.26 212.441L1045.28 214.184C1053.56 218.83 1063.39 221.131 1074.75 221.131V219.131ZM1046.27 212.444C1038.39 207.948 1032.32 201.605 1028.05 193.391L1026.28 194.313C1030.72 202.861 1037.06 209.491 1045.28 214.181L1046.27 212.444ZM1028.05 193.393C1023.79 185.134 1021.63 175.331 1021.63 163.952H1019.63C1019.63 175.584 1021.83 185.714 1026.28 194.311L1028.05 193.393ZM1021.63 163.952C1021.63 152.861 1023.78 143.174 1028.05 134.863L1026.28 133.949C1021.84 142.589 1019.63 152.599 1019.63 163.952H1021.63ZM1028.05 134.863C1032.33 126.548 1038.33 120.084 1046.07 115.449L1045.05 113.733C1036.97 118.567 1030.71 125.314 1026.28 133.949L1028.05 134.863ZM1046.07 115.45C1053.85 110.821 1062.99 108.489 1073.54 108.489V106.489C1062.69 106.489 1053.18 108.891 1045.05 113.732L1046.07 115.45ZM1073.54 108.489C1080.63 108.489 1087.21 109.631 1093.29 111.905L1093.99 110.032C1087.67 107.667 1080.85 106.489 1073.54 106.489V108.489ZM1093.3 111.909C1099.42 114.133 1104.74 117.488 1109.27 121.978L1110.68 120.556C1105.94 115.86 1100.37 112.35 1093.98 110.029L1093.3 111.909ZM1109.28 121.981C1113.85 126.459 1117.42 132.106 1119.98 138.947L1121.85 138.246C1119.2 131.167 1115.48 125.261 1110.68 120.553L1109.28 121.981ZM1119.98 138.949C1122.53 145.725 1123.82 153.697 1123.82 162.886H1125.82C1125.82 153.515 1124.51 145.294 1121.85 138.244L1119.98 138.949ZM1123.82 162.886V171.196H1125.82V162.886H1123.82ZM1124.82 170.196H1032.71V172.196H1124.82V170.196ZM1033.71 171.196V152.446H1031.71V171.196H1033.71ZM1032.71 153.446H1096.34V151.446H1032.71V153.446ZM1097.34 152.446C1097.34 147.941 1096.36 143.909 1094.37 140.378L1092.63 141.36C1094.43 144.554 1095.34 148.239 1095.34 152.446H1097.34ZM1094.37 140.378C1092.39 136.858 1089.63 134.098 1086.11 132.115L1085.13 133.857C1088.33 135.661 1090.83 138.158 1092.63 141.36L1094.37 140.378ZM1086.12 132.123C1082.63 130.079 1078.6 129.074 1074.04 129.074V131.074C1078.29 131.074 1081.97 132.01 1085.11 133.849L1086.12 132.123ZM1074.04 129.074C1069.29 129.074 1065.03 130.179 1061.31 132.412L1062.34 134.127C1065.72 132.1 1069.61 131.074 1074.04 131.074V129.074ZM1061.31 132.41C1057.66 134.583 1054.79 137.528 1052.71 141.233L1054.46 142.21C1056.36 138.813 1058.98 136.123 1062.34 134.129L1061.31 132.41ZM1052.72 141.228C1050.64 144.889 1049.58 148.963 1049.53 153.429L1051.53 153.451C1051.58 149.3 1052.56 145.562 1054.46 142.215L1052.72 141.228ZM1049.53 153.44V171.267H1051.53V153.44H1049.53ZM1049.53 171.267C1049.53 176.787 1050.55 181.612 1052.62 185.71L1054.41 184.807C1052.5 181.045 1051.53 176.543 1051.53 171.267H1049.53ZM1052.63 185.719C1054.75 189.811 1057.74 192.986 1061.61 195.216L1062.61 193.483C1059.09 191.452 1056.35 188.566 1054.4 184.799L1052.63 185.719ZM1061.61 195.216C1065.48 197.449 1070.04 198.545 1075.25 198.545V196.545C1070.32 196.545 1066.12 195.511 1062.61 193.483L1061.61 195.216ZM1075.25 198.545C1078.7 198.545 1081.89 198.059 1084.8 197.072L1084.16 195.178C1081.48 196.085 1078.52 196.545 1075.25 196.545V198.545ZM1084.8 197.072C1087.72 196.082 1090.24 194.589 1092.34 192.588L1090.96 191.139C1089.09 192.926 1086.83 194.274 1084.16 195.178L1084.8 197.072ZM1092.34 192.588C1094.45 190.584 1096.04 188.134 1097.13 185.258L1095.26 184.549C1094.27 187.165 1092.84 189.356 1090.96 191.139L1092.34 192.588ZM1096.13 185.901L1124.12 187.748L1124.25 185.752L1096.27 183.906L1096.13 185.901ZM1123.2 186.543C1121.82 193.104 1118.98 198.818 1114.7 203.704L1116.2 205.023C1120.72 199.871 1123.71 193.843 1125.16 186.957L1123.2 186.543ZM1114.69 203.705C1110.45 208.544 1104.96 212.342 1098.17 215.084L1098.92 216.939C1105.96 214.094 1111.73 210.126 1116.2 205.023L1114.69 203.705ZM1098.17 215.083C1091.45 217.773 1083.65 219.131 1074.75 219.131V221.131C1083.85 221.131 1091.91 219.742 1098.91 216.94L1098.17 215.083ZM168.98 365.469V366.469H170.105L169.973 365.352L168.98 365.469ZM137.872 365.469L136.882 365.609L137.003 366.469H137.872V365.469ZM134.392 354.744L133.517 355.228L133.52 355.233L134.392 354.744ZM127.645 346.648L127.015 347.425L127.015 347.425L127.645 346.648ZM118.128 341.534L117.812 342.483L117.815 342.484L118.128 341.534ZM86.8778 345.369L87.4293 346.204L87.4342 346.2L86.8778 345.369ZM73.8807 361.562L74.7973 361.962L74.7982 361.96L73.8807 361.562ZM73.8807 413.409L72.9641 413.809L72.9664 413.814L73.8807 413.409ZM86.9489 429.389L86.4074 430.23L86.4074 430.23L86.9489 429.389ZM117.773 433.153L117.48 432.197L117.476 432.198L117.773 433.153ZM127.219 428.395L127.823 429.192L127.832 429.185L127.219 428.395ZM134.037 420.653L133.183 420.133L133.177 420.143L134.037 420.653ZM137.872 410.284L137.877 409.284L137.039 409.28L136.888 410.104L137.872 410.284ZM168.98 410.426L169.973 410.546L170.107 409.431L168.985 409.426L168.98 410.426ZM162.943 429.744L162.056 429.284L162.054 429.286L162.943 429.744ZM150.088 446.293L150.758 447.035L150.758 447.035L150.088 446.293ZM130.912 457.798L131.266 458.734L131.269 458.732L130.912 457.798ZM71.0398 453.182L70.5402 454.048L70.5419 454.049L71.0398 453.182ZM46.892 427.685L46.0076 428.151L46.0092 428.154L46.892 427.685ZM47.0341 346.79L47.9154 347.262L47.9154 347.262L47.0341 346.79ZM71.3239 321.364L71.8187 322.233L71.8217 322.231L71.3239 321.364ZM129.278 316.108L128.966 317.058L128.968 317.058L129.278 316.108ZM148.526 326.477L147.894 327.253L147.898 327.256L148.526 326.477ZM162.162 343.026L161.281 343.498L161.283 343.503L162.162 343.026ZM168.98 364.469H137.872V366.469H168.98V364.469ZM138.862 365.329C138.279 361.198 137.084 357.502 135.264 354.255L133.52 355.233C135.203 358.237 136.329 361.69 136.882 365.609L138.862 365.329ZM135.267 354.261C133.455 350.979 131.123 348.179 128.274 345.871L127.015 347.425C129.659 349.567 131.825 352.165 133.517 355.228L135.267 354.261ZM128.274 345.871C125.427 343.564 122.146 341.803 118.44 340.584L117.815 342.484C121.307 343.633 124.37 345.281 127.015 347.425L128.274 345.871ZM118.444 340.585C114.78 339.364 110.813 338.759 106.551 338.759V340.759C110.622 340.759 114.373 341.337 117.812 342.483L118.444 340.585ZM106.551 338.759C98.8492 338.759 92.0926 340.675 86.3215 344.538L87.4342 346.2C92.8374 342.583 99.1962 340.759 106.551 340.759V338.759ZM86.3264 344.535C80.5535 348.351 76.1056 353.913 72.9631 361.165L74.7982 361.96C77.8111 355.007 82.028 349.774 87.4293 346.204L86.3264 344.535ZM72.9641 361.163C69.8172 368.376 68.2642 377.091 68.2642 387.273H70.2642C70.2642 377.284 71.7889 368.859 74.7973 361.962L72.9641 361.163ZM68.2642 387.273C68.2642 397.735 69.8159 406.592 72.9641 413.809L74.7973 413.009C71.7902 406.116 70.2642 397.55 70.2642 387.273H68.2642ZM72.9664 413.814C76.1574 421.018 80.631 426.51 86.4074 430.23L87.4903 428.548C82.0925 425.072 77.854 419.91 74.795 413.004L72.9664 413.814ZM86.4074 430.23C92.1726 433.943 98.8278 435.787 106.338 435.787V433.787C99.1703 433.787 92.8994 432.032 87.4903 428.548L86.4074 430.23ZM106.338 435.787C110.546 435.787 114.459 435.231 118.07 434.108L117.476 432.198C114.079 433.254 110.369 433.787 106.338 433.787V435.787ZM118.066 434.109C121.721 432.989 124.976 431.351 127.823 429.192L126.614 427.598C123.969 429.605 120.927 431.14 117.48 432.197L118.066 434.109ZM127.832 429.185C130.678 426.976 133.034 424.301 134.897 421.164L133.177 420.143C131.441 423.067 129.251 425.552 126.606 427.605L127.832 429.185ZM134.891 421.174C136.808 418.028 138.126 414.454 138.856 410.464L136.888 410.104C136.198 413.88 134.959 417.218 133.183 420.133L134.891 421.174ZM137.868 411.284L168.976 411.426L168.985 409.426L137.877 409.284L137.868 411.284ZM167.987 410.306C167.197 416.859 165.222 423.183 162.056 429.284L163.831 430.205C167.103 423.9 169.153 417.346 169.973 410.546L167.987 410.306ZM162.054 429.286C158.94 435.329 154.731 440.75 149.418 445.551L150.758 447.035C156.241 442.081 160.602 436.47 163.832 430.202L162.054 429.286ZM149.418 445.55C144.168 450.289 137.885 454.063 130.555 456.864L131.269 458.732C138.806 455.852 145.307 451.955 150.758 447.035L149.418 445.55ZM130.558 456.863C123.303 459.607 115.069 460.989 105.841 460.989V462.989C115.268 462.989 123.748 461.577 131.266 458.734L130.558 456.863ZM105.841 460.989C93.0242 460.989 81.5986 458.09 71.5376 452.315L70.5419 454.049C80.9355 460.016 92.7107 462.989 105.841 462.989V460.989ZM71.5394 452.316C61.5337 446.545 53.6121 438.189 47.7749 427.215L46.0092 428.154C52.0091 439.434 60.186 448.076 70.5402 454.048L71.5394 452.316ZM47.7765 427.218C41.9982 416.267 39.0852 402.965 39.0852 387.273H37.0852C37.0852 403.209 40.0435 416.848 46.0076 428.151L47.7765 427.218ZM39.0852 387.273C39.0852 371.534 42.0449 358.211 47.9154 347.262L46.1528 346.317C40.0915 357.622 37.0852 371.288 37.0852 387.273H39.0852ZM47.9154 347.262C53.7991 336.289 61.767 327.957 71.8187 322.233L70.829 320.495C60.4262 326.418 52.2009 335.037 46.1528 346.317L47.9154 347.262ZM71.8217 322.231C81.8849 316.454 93.2164 313.557 105.841 313.557V311.557C92.8973 311.557 81.2174 314.531 70.826 320.496L71.8217 322.231ZM105.841 313.557C114.175 313.557 121.88 314.727 128.966 317.058L129.591 315.158C122.282 312.754 114.363 311.557 105.841 311.557V313.557ZM128.968 317.058C136.102 319.39 142.408 322.789 147.894 327.253L149.157 325.702C143.469 321.074 136.943 317.561 129.589 315.157L128.968 317.058ZM147.898 327.256C153.378 331.667 157.838 337.078 161.281 343.498L163.043 342.553C159.478 335.905 154.848 330.283 149.153 325.698L147.898 327.256ZM161.283 343.503C164.766 349.911 167.005 357.267 167.987 365.586L169.973 365.352C168.966 356.815 166.66 349.209 163.041 342.548L161.283 343.503ZM220.72 396.932L219.72 396.922V396.932H220.72ZM220.72 460V461H221.72V460H220.72ZM190.464 460H189.464V461H190.464V460ZM190.464 314.545V313.545H189.464V314.545H190.464ZM219.868 314.545H220.868V313.545H219.868V314.545ZM219.868 370.156H218.868V371.156H219.868V370.156ZM221.146 370.156V371.156H221.835L222.08 370.513L221.146 370.156ZM233.078 355.028L233.631 355.862L233.636 355.858L233.078 355.028ZM273.561 354.46L273.054 355.322L273.063 355.327L273.561 354.46ZM286.771 368.594L285.88 369.046L285.884 369.055L286.771 368.594ZM291.459 390.54L290.459 390.534V390.54H291.459ZM291.459 460V461H292.459V460H291.459ZM261.203 460H260.203V461H261.203V460ZM261.203 395.938L260.203 395.93V395.938H261.203ZM256.089 380.241L255.35 380.915L255.355 380.92L256.089 380.241ZM230.805 377.259L230.322 376.383L230.316 376.386L230.805 377.259ZM223.419 384.929L222.537 384.457L222.535 384.462L223.419 384.929ZM219.72 396.932V460H221.72V396.932H219.72ZM220.72 459H190.464V461H220.72V459ZM191.464 460V314.545H189.464V460H191.464ZM190.464 315.545H219.868V313.545H190.464V315.545ZM218.868 314.545V370.156H220.868V314.545H218.868ZM219.868 371.156H221.146V369.156H219.868V371.156ZM222.08 370.513C224.472 364.259 228.32 359.387 233.631 355.862L232.525 354.195C226.851 357.962 222.745 363.175 220.212 369.799L222.08 370.513ZM233.636 355.858C238.926 352.301 245.608 350.489 253.746 350.489V348.489C245.311 348.489 238.215 350.369 232.52 354.199L233.636 355.858ZM253.746 350.489C261.172 350.489 267.596 352.112 273.054 355.322L274.068 353.598C268.257 350.18 261.471 348.489 253.746 348.489V350.489ZM273.063 355.327C278.567 358.492 282.838 363.055 285.88 369.046L287.663 368.141C284.455 361.822 279.919 356.963 274.06 353.593L273.063 355.327ZM285.884 369.055C288.966 374.988 290.505 382.136 290.459 390.534L292.459 390.545C292.507 381.898 290.922 374.415 287.659 368.133L285.884 369.055ZM290.459 390.54V460H292.459V390.54H290.459ZM291.459 459H261.203V461H291.459V459ZM262.203 460V395.938H260.203V460H262.203ZM262.203 395.945C262.252 389.051 260.502 383.543 256.824 379.563L255.355 380.92C258.59 384.421 260.249 389.377 260.203 395.93L262.203 395.945ZM256.829 379.568C253.19 375.575 248.114 373.631 241.743 373.631V375.631C247.683 375.631 252.171 377.427 255.35 380.915L256.829 379.568ZM241.743 373.631C237.478 373.631 233.662 374.539 230.322 376.383L231.289 378.134C234.294 376.474 237.769 375.631 241.743 375.631V373.631ZM230.316 376.386C227.014 378.238 224.421 380.938 222.537 384.457L224.301 385.401C226.016 382.196 228.347 379.783 231.294 378.131L230.316 376.386ZM222.535 384.462C220.692 387.948 219.769 392.114 219.72 396.922L221.72 396.942C221.766 392.375 222.642 388.539 224.303 385.396L222.535 384.462ZM336.008 455.312L335.512 456.181L335.518 456.184L336.008 455.312ZM317.4 435.852L316.511 436.311L316.513 436.313L317.4 435.852ZM317.4 376.406L316.51 375.949L316.51 375.949L317.4 376.406ZM335.795 356.591L335.283 355.732L335.281 355.733L335.795 356.591ZM383.877 352.969L383.527 353.905L383.535 353.909L383.877 352.969ZM400.212 363.267L399.509 363.978L399.513 363.981L400.212 363.267ZM411.15 380.597L410.213 380.947L410.214 380.949L411.15 380.597ZM415.056 413.196V414.196H416.056V413.196H415.056ZM322.94 413.196H321.94V414.196H322.94V413.196ZM322.94 394.446V393.446H321.94V394.446H322.94ZM386.576 394.446V395.446H387.576V394.446H386.576ZM383.735 382.869L382.864 383.36L382.864 383.36L383.735 382.869ZM375.852 374.986L375.346 375.849L375.353 375.853L375.361 375.857L375.852 374.986ZM352.059 375.27L352.57 376.129L352.573 376.127L352.059 375.27ZM343.82 383.722L344.69 384.215L344.693 384.21L343.82 383.722ZM340.766 395.44L339.766 395.429V395.44H340.766ZM343.749 427.259L342.857 427.71L342.861 427.719L343.749 427.259ZM374.715 438.125L374.394 437.178L374.394 437.178L374.715 438.125ZM381.888 433.864L381.199 433.139L381.199 433.139L381.888 433.864ZM386.434 426.903L386.5 425.906L385.761 425.857L385.499 426.549L386.434 426.903ZM414.417 428.75L415.395 428.957L415.634 427.828L414.483 427.752L414.417 428.75ZM405.681 446.364L404.929 445.704L404.929 445.705L405.681 446.364ZM388.778 458.011L389.149 458.94L389.152 458.939L388.778 458.011ZM364.985 461.131C353.899 461.131 344.416 458.886 336.497 454.441L335.518 456.184C343.793 460.83 353.628 463.131 364.985 463.131V461.131ZM336.503 454.444C328.625 449.948 322.556 443.605 318.287 435.391L316.513 436.313C320.956 444.861 327.293 451.491 335.512 456.181L336.503 454.444ZM318.288 435.393C314.02 427.134 311.866 417.331 311.866 405.952H309.866C309.866 417.584 312.068 427.714 316.511 436.311L318.288 435.393ZM311.866 405.952C311.866 394.861 314.018 385.174 318.289 376.863L316.51 375.949C312.07 384.589 309.866 394.599 309.866 405.952H311.866ZM318.289 376.863C322.563 368.548 328.567 362.084 336.308 357.449L335.281 355.733C327.208 360.567 320.949 367.314 316.51 375.949L318.289 376.863ZM336.306 357.45C344.083 352.821 353.228 350.489 363.778 350.489V348.489C352.925 348.489 343.415 350.891 335.283 355.732L336.306 357.45ZM363.778 350.489C370.865 350.489 377.446 351.631 383.527 353.905L384.227 352.032C377.903 349.667 371.084 348.489 363.778 348.489V350.489ZM383.535 353.909C389.652 356.133 394.973 359.488 399.509 363.978L400.916 362.556C396.171 357.86 390.602 354.35 384.219 352.029L383.535 353.909ZM399.513 363.981C404.082 368.459 407.654 374.106 410.213 380.947L412.086 380.246C409.438 373.167 405.717 367.261 400.912 362.553L399.513 363.981ZM410.214 380.949C412.766 387.725 414.056 395.697 414.056 404.886H416.056C416.056 395.515 414.742 387.294 412.086 380.244L410.214 380.949ZM414.056 404.886V413.196H416.056V404.886H414.056ZM415.056 412.196H322.94V414.196H415.056V412.196ZM323.94 413.196V394.446H321.94V413.196H323.94ZM322.94 395.446H386.576V393.446H322.94V395.446ZM387.576 394.446C387.576 389.941 386.595 385.909 384.606 382.378L382.864 383.36C384.663 386.554 385.576 390.239 385.576 394.446H387.576ZM384.606 382.378C382.623 378.858 379.863 376.098 376.342 374.115L375.361 375.857C378.563 377.661 381.06 380.158 382.864 383.36L384.606 382.378ZM376.357 374.123C372.868 372.079 368.829 371.074 364.275 371.074V373.074C368.527 373.074 372.206 374.01 375.346 375.849L376.357 374.123ZM364.275 371.074C359.521 371.074 355.268 372.179 351.544 374.412L352.573 376.127C355.953 374.1 359.843 373.074 364.275 373.074V371.074ZM351.548 374.41C347.893 376.583 345.022 379.528 342.948 383.233L344.693 384.21C346.596 380.813 349.217 378.123 352.57 376.129L351.548 374.41ZM342.951 383.228C340.873 386.889 339.815 390.963 339.766 395.429L341.766 395.451C341.812 391.3 342.791 387.562 344.69 384.215L342.951 383.228ZM339.766 395.44V413.267H341.766V395.44H339.766ZM339.766 413.267C339.766 418.787 340.783 423.612 342.857 427.71L344.642 426.807C342.738 423.045 341.766 418.543 341.766 413.267H339.766ZM342.861 427.719C344.982 431.811 347.978 434.986 351.843 437.216L352.843 435.483C349.322 433.452 346.589 430.566 344.637 426.799L342.861 427.719ZM351.843 437.216C355.715 439.449 360.274 440.545 365.482 440.545V438.545C360.558 438.545 356.358 437.511 352.843 435.483L351.843 437.216ZM365.482 440.545C368.938 440.545 372.126 440.059 375.036 439.072L374.394 437.178C371.717 438.085 368.75 438.545 365.482 438.545V440.545ZM375.036 439.072C377.957 438.082 380.477 436.589 382.578 434.588L381.199 433.139C379.323 434.926 377.06 436.274 374.394 437.178L375.036 439.072ZM382.578 434.588C384.683 432.584 386.278 430.134 387.369 427.258L385.499 426.549C384.507 429.165 383.072 431.356 381.199 433.139L382.578 434.588ZM386.368 427.901L414.351 429.748L414.483 427.752L386.5 425.906L386.368 427.901ZM413.439 428.543C412.052 435.104 409.216 440.818 404.929 445.704L406.433 447.023C410.953 441.871 413.94 435.843 415.395 428.957L413.439 428.543ZM404.929 445.705C400.689 450.544 395.19 454.342 388.403 457.084L389.152 458.939C396.192 456.094 401.962 452.126 406.433 447.023L404.929 445.705ZM388.406 457.083C381.681 459.773 373.881 461.131 364.985 461.131V463.131C374.082 463.131 382.143 461.742 389.149 458.94L388.406 457.083ZM455.255 455.028L454.742 455.887L454.748 455.89L455.255 455.028ZM436.789 435.142L435.896 435.591L435.898 435.595L436.789 435.142ZM436.86 376.477L435.971 376.02L435.97 376.022L436.86 376.477ZM455.397 356.662L455.906 357.523L455.91 357.52L455.397 356.662ZM508.948 354.673L509.383 353.773L509.383 353.773L508.948 354.673ZM525.923 369.233L525.091 369.788L525.923 369.233ZM532.812 391.25V392.25H533.864L533.811 391.2L532.812 391.25ZM504.261 391.25L503.271 391.396L503.398 392.25H504.261V391.25ZM497.869 378.111L497.166 378.823L497.176 378.833L497.869 378.111ZM472.158 376.903L472.746 377.713L472.748 377.711L472.158 376.903ZM463.991 423.21L463.059 423.572L463.062 423.58L463.991 423.21ZM472.158 434.361L472.748 433.553L472.748 433.553L472.158 434.361ZM493.749 436.065L493.296 435.174L493.29 435.177L493.749 436.065ZM500.638 429.886L499.809 429.328L499.806 429.332L500.638 429.886ZM504.261 420.014V419.014H503.398L503.271 419.868L504.261 420.014ZM532.812 420.014L533.81 420.071L533.87 419.014H532.812V420.014ZM525.994 442.031L525.152 441.491L525.151 441.493L525.994 442.031ZM509.303 456.804L508.856 455.91L508.856 455.91L509.303 456.804ZM484.09 461.131C473.059 461.131 463.63 458.795 455.762 454.166L454.748 455.89C462.979 460.732 472.773 463.131 484.09 463.131V461.131ZM455.768 454.17C447.931 449.487 441.906 443 437.68 434.689L435.898 435.595C440.29 444.235 446.575 451.006 454.742 455.887L455.768 454.17ZM437.682 434.693C433.502 426.378 431.397 416.782 431.397 405.881H429.397C429.397 417.043 431.554 426.955 435.896 435.591L437.682 434.693ZM431.397 405.881C431.397 394.836 433.526 385.196 437.75 376.932L435.97 376.022C431.577 384.614 429.397 394.577 429.397 405.881H431.397ZM437.749 376.934C442.022 368.622 448.071 362.159 455.906 357.523L454.888 355.801C446.719 360.635 440.411 367.382 435.971 376.02L437.749 376.934ZM455.91 357.52C463.73 352.847 473.063 350.489 483.948 350.489V348.489C472.769 348.489 463.067 350.913 454.884 355.804L455.91 357.52ZM483.948 350.489C493.344 350.489 501.523 352.195 508.513 355.574L509.383 353.773C502.074 350.239 493.586 348.489 483.948 348.489V350.489ZM508.513 355.574C515.511 358.957 521.029 363.695 525.091 369.788L526.755 368.678C522.483 362.271 516.684 357.303 509.383 353.773L508.513 355.574ZM525.091 369.788C529.145 375.87 531.395 383.03 531.813 391.3L533.811 391.2C533.376 382.614 531.033 375.096 526.755 368.678L525.091 369.788ZM532.812 390.25H504.261V392.25H532.812V390.25ZM505.25 391.104C504.418 385.474 502.201 380.879 498.561 377.389L497.176 378.833C500.449 381.971 502.494 386.136 503.271 391.396L505.25 391.104ZM498.571 377.399C494.945 373.823 490.203 372.068 484.445 372.068V374.068C489.767 374.068 493.974 375.675 497.166 378.823L498.571 377.399ZM484.445 372.068C479.564 372.068 475.258 373.404 471.569 376.096L472.748 377.711C476.066 375.29 479.952 374.068 484.445 374.068V372.068ZM471.571 376.094C467.932 378.736 465.13 382.573 463.134 387.539L464.99 388.285C466.876 383.592 469.472 380.09 472.746 377.713L471.571 376.094ZM463.134 387.539C461.132 392.518 460.15 398.5 460.15 405.455H462.15C462.15 398.678 463.109 392.965 464.99 388.285L463.134 387.539ZM460.15 405.455C460.15 412.5 461.108 418.549 463.059 423.572L464.923 422.848C463.086 418.118 462.15 412.33 462.15 405.455H460.15ZM463.062 423.58C465.058 428.595 467.884 432.479 471.569 435.169L472.748 433.553C469.426 431.129 466.806 427.579 464.92 422.84L463.062 423.58ZM471.569 435.169C475.258 437.861 479.564 439.196 484.445 439.196V437.196C479.952 437.196 476.066 435.975 472.748 433.553L471.569 435.169ZM484.445 439.196C488.043 439.196 491.304 438.456 494.209 436.954L493.29 435.177C490.702 436.516 487.761 437.196 484.445 437.196V439.196ZM494.203 436.957C497.155 435.456 499.58 433.278 501.471 430.441L499.806 429.332C498.099 431.893 495.931 433.834 493.296 435.174L494.203 436.957ZM501.468 430.444C503.411 427.555 504.664 424.118 505.25 420.161L503.271 419.868C502.721 423.581 501.559 426.725 499.809 429.328L501.468 430.444ZM504.261 421.014H532.812V419.014H504.261V421.014ZM531.813 419.957C531.349 428.138 529.121 435.306 525.152 441.491L526.835 442.571C531.01 436.067 533.328 428.557 533.81 420.071L531.813 419.957ZM525.151 441.493C521.23 447.628 515.807 452.434 508.856 455.91L509.75 457.698C517.004 454.072 522.708 449.029 526.836 442.57L525.151 441.493ZM508.856 455.91C501.92 459.378 493.675 461.131 484.09 461.131V463.131C493.918 463.131 502.482 461.333 509.75 457.698L508.856 455.91ZM579.598 428.608L578.598 428.606L578.593 431.274L580.35 429.267L579.598 428.608ZM579.669 392.315V391.315H578.671L578.669 392.313L579.669 392.315ZM584.072 392.315V393.315H584.537L584.837 392.96L584.072 392.315ZM619.016 350.909V349.909H618.551L618.251 350.264L619.016 350.909ZM653.746 350.909L654.505 351.559L655.918 349.909H653.746V350.909ZM606.8 405.739V406.739H607.26L607.559 406.389L606.8 405.739ZM599.626 405.739V404.739H599.173L598.874 405.08L599.626 405.739ZM552.183 460H551.183V461H552.183V460ZM552.183 314.545V313.545H551.183V314.545H552.183ZM582.439 314.545H583.439V313.545H582.439V314.545ZM582.439 460V461H583.439V460H582.439ZM620.365 460L619.536 460.56L619.834 461H620.365V460ZM588.263 412.486L587.535 411.8L586.986 412.382L587.434 413.046L588.263 412.486ZM608.433 391.108L609.257 390.541L608.556 389.521L607.706 390.422L608.433 391.108ZM655.805 460V461H657.707L656.629 459.433L655.805 460ZM580.598 428.61L580.669 392.317L578.669 392.313L578.598 428.606L580.598 428.61ZM579.669 393.315H584.072V391.315H579.669V393.315ZM584.837 392.96L619.78 351.554L618.251 350.264L583.308 391.67L584.837 392.96ZM619.016 351.909H653.746V349.909H619.016V351.909ZM652.986 350.259L606.04 405.088L607.559 406.389L654.505 351.559L652.986 350.259ZM606.8 404.739H599.626V406.739H606.8V404.739ZM598.874 405.08L578.846 427.949L580.35 429.267L600.379 406.397L598.874 405.08ZM553.183 460V314.545H551.183V460H553.183ZM552.183 315.545H582.439V313.545H552.183V315.545ZM581.439 314.545V460H583.439V314.545H581.439ZM582.439 459H552.183V461H582.439V459ZM621.194 459.44L589.091 411.926L587.434 413.046L619.536 460.56L621.194 459.44ZM588.99 413.172L609.161 391.794L607.706 390.422L587.535 411.8L588.99 413.172ZM607.609 391.675L654.981 460.567L656.629 459.433L609.257 390.541L607.609 391.675ZM655.805 459H620.365V461H655.805V459ZM684.836 455.312L684.34 456.181L684.346 456.184L684.836 455.312ZM666.228 435.852L665.34 436.311L665.341 436.313L666.228 435.852ZM666.228 376.406L665.339 375.949L665.339 375.949L666.228 376.406ZM684.623 356.591L684.111 355.732L684.109 355.733L684.623 356.591ZM732.705 352.969L732.355 353.905L732.364 353.909L732.705 352.969ZM749.04 363.267L748.337 363.978L748.341 363.981L749.04 363.267ZM759.978 380.597L759.041 380.947L759.042 380.949L759.978 380.597ZM763.884 413.196V414.196H764.884V413.196H763.884ZM671.768 413.196H670.768V414.196H671.768V413.196ZM671.768 394.446V393.446H670.768V394.446H671.768ZM735.404 394.446V395.446H736.404V394.446H735.404ZM732.563 382.869L731.692 383.36L731.692 383.36L732.563 382.869ZM724.68 374.986L724.174 375.849L724.182 375.853L724.189 375.857L724.68 374.986ZM700.887 375.27L701.398 376.129L701.402 376.127L700.887 375.27ZM692.648 383.722L693.518 384.215L693.521 384.21L692.648 383.722ZM689.594 395.44L688.594 395.429V395.44H689.594ZM692.577 427.259L691.685 427.71L691.689 427.719L692.577 427.259ZM723.543 438.125L723.222 437.178L723.222 437.178L723.543 438.125ZM730.717 433.864L730.027 433.139L730.027 433.139L730.717 433.864ZM735.262 426.903L735.328 425.906L734.59 425.857L734.327 426.549L735.262 426.903ZM763.245 428.75L764.223 428.957L764.462 427.828L763.311 427.752L763.245 428.75ZM754.509 446.364L753.758 445.704L753.757 445.705L754.509 446.364ZM737.606 458.011L737.977 458.94L737.98 458.939L737.606 458.011ZM713.813 461.131C702.727 461.131 693.244 458.886 685.325 454.441L684.346 456.184C692.621 460.83 702.456 463.131 713.813 463.131V461.131ZM685.332 454.444C677.453 449.948 671.384 443.605 667.115 435.391L665.341 436.313C669.784 444.861 676.121 451.491 684.34 456.181L685.332 454.444ZM667.116 435.393C662.848 427.134 660.694 417.331 660.694 405.952H658.694C658.694 417.584 660.896 427.714 665.34 436.311L667.116 435.393ZM660.694 405.952C660.694 394.861 662.846 385.174 667.117 376.863L665.339 375.949C660.898 384.589 658.694 394.599 658.694 405.952H660.694ZM667.117 376.863C671.391 368.548 677.395 362.084 685.137 357.449L684.109 355.733C676.036 360.567 669.777 367.314 665.339 375.949L667.117 376.863ZM685.134 357.45C692.911 352.821 702.057 350.489 712.606 350.489V348.489C701.754 348.489 692.243 350.891 684.111 355.732L685.134 357.45ZM712.606 350.489C719.694 350.489 726.274 351.631 732.355 353.905L733.056 352.032C726.732 349.667 719.912 348.489 712.606 348.489V350.489ZM732.364 353.909C738.48 356.133 743.801 359.488 748.337 363.978L749.744 362.556C744.999 357.86 739.43 354.35 733.047 352.029L732.364 353.909ZM748.341 363.981C752.91 368.459 756.482 374.106 759.041 380.947L760.915 380.246C758.266 373.167 754.545 367.261 749.74 362.553L748.341 363.981ZM759.042 380.949C761.595 387.725 762.884 395.697 762.884 404.886H764.884C764.884 395.515 763.57 387.294 760.914 380.244L759.042 380.949ZM762.884 404.886V413.196H764.884V404.886H762.884ZM763.884 412.196H671.768V414.196H763.884V412.196ZM672.768 413.196V394.446H670.768V413.196H672.768ZM671.768 395.446H735.404V393.446H671.768V395.446ZM736.404 394.446C736.404 389.941 735.423 385.909 733.434 382.378L731.692 383.36C733.491 386.554 734.404 390.239 734.404 394.446H736.404ZM733.434 382.378C731.451 378.858 728.691 376.098 725.171 374.115L724.189 375.857C727.391 377.661 729.888 380.158 731.692 383.36L733.434 382.378ZM725.185 374.123C721.696 372.079 717.658 371.074 713.103 371.074V373.074C717.355 373.074 721.034 374.01 724.174 375.849L725.185 374.123ZM713.103 371.074C708.349 371.074 704.096 372.179 700.373 374.412L701.402 376.127C704.781 374.1 708.671 373.074 713.103 373.074V371.074ZM700.376 374.41C696.721 376.583 693.851 379.528 691.776 383.233L693.521 384.21C695.424 380.813 698.045 378.123 701.398 376.129L700.376 374.41ZM691.779 383.228C689.701 386.889 688.644 390.963 688.595 395.429L690.594 395.451C690.64 391.3 691.619 387.562 693.518 384.215L691.779 383.228ZM688.594 395.44V413.267H690.594V395.44H688.594ZM688.594 413.267C688.594 418.787 689.611 423.612 691.685 427.71L693.47 426.807C691.566 423.045 690.594 418.543 690.594 413.267H688.594ZM691.689 427.719C693.81 431.811 696.806 434.986 700.671 437.216L701.671 435.483C698.15 433.452 695.417 430.566 693.465 426.799L691.689 427.719ZM700.671 437.216C704.543 439.449 709.102 440.545 714.31 440.545V438.545C709.386 438.545 705.186 437.511 701.671 435.483L700.671 437.216ZM714.31 440.545C717.766 440.545 720.954 440.059 723.864 439.072L723.222 437.178C720.545 438.085 717.578 438.545 714.31 438.545V440.545ZM723.864 439.072C726.785 438.082 729.305 436.589 731.406 434.588L730.027 433.139C728.151 434.926 725.889 436.274 723.222 437.178L723.864 439.072ZM731.406 434.588C733.511 432.584 735.106 430.134 736.197 427.258L734.327 426.549C733.335 429.165 731.9 431.356 730.027 433.139L731.406 434.588ZM735.196 427.901L763.179 429.748L763.311 427.752L735.328 425.906L735.196 427.901ZM762.267 428.543C760.881 435.104 758.044 440.818 753.758 445.704L755.261 447.023C759.781 441.871 762.769 435.843 764.223 428.957L762.267 428.543ZM753.757 445.705C749.517 450.544 744.018 454.342 737.231 457.084L737.98 458.939C745.02 456.094 750.79 452.126 755.261 447.023L753.757 445.705ZM737.234 457.083C730.51 459.773 722.709 461.131 713.813 461.131V463.131C722.91 463.131 730.971 461.742 737.977 458.94L737.234 457.083ZM783.629 460H782.629V461H783.629V460ZM783.629 350.909V349.909H782.629V350.909H783.629ZM812.961 350.909H813.961V349.909H812.961V350.909ZM812.961 369.943H811.961V370.943H812.961V369.943ZM814.097 369.943V370.943H814.846L815.057 370.225L814.097 369.943ZM824.112 354.602L824.705 355.407L824.71 355.403L824.112 354.602ZM845.205 349.631L845.313 348.636L845.313 348.636L845.205 349.631ZM849.822 350.412H850.822V349.631L850.064 349.442L849.822 350.412ZM849.822 377.259L849.534 378.216L850.822 378.603V377.259H849.822ZM825.106 378.537L825.586 379.414L825.59 379.412L825.106 378.537ZM816.867 386.491L816.009 385.979L816.003 385.988L816.867 386.491ZM813.884 460V461H814.884V460H813.884ZM784.629 460V350.909H782.629V460H784.629ZM783.629 351.909H812.961V349.909H783.629V351.909ZM811.961 350.909V369.943H813.961V350.909H811.961ZM812.961 370.943H814.097V368.943H812.961V370.943ZM815.057 370.225C816.997 363.618 820.228 358.708 824.705 355.407L823.518 353.797C818.62 357.409 815.175 362.726 813.138 369.661L815.057 370.225ZM824.71 355.403C829.217 352.035 834.402 350.347 840.305 350.347V348.347C833.991 348.347 828.381 350.162 823.513 353.801L824.71 355.403ZM840.305 350.347C841.779 350.347 843.376 350.439 845.098 350.625L845.313 348.636C843.531 348.444 841.861 348.347 840.305 348.347V350.347ZM845.098 350.625C846.816 350.811 848.308 351.064 849.579 351.382L850.064 349.442C848.684 349.097 847.098 348.829 845.313 348.636L845.098 350.625ZM848.822 350.412V377.259H850.822V350.412H848.822ZM850.109 376.301C848.614 375.852 846.589 375.465 844.058 375.131L843.796 377.114C846.284 377.442 848.188 377.813 849.534 378.216L850.109 376.301ZM844.058 375.131C841.514 374.795 839.173 374.625 837.038 374.625V376.625C839.069 376.625 841.321 376.787 843.796 377.114L844.058 375.131ZM837.038 374.625C832.437 374.625 828.289 375.63 824.621 377.662L825.59 379.412C828.93 377.561 832.737 376.625 837.038 376.625V374.625ZM824.625 377.66C821.011 379.64 818.135 382.418 816.009 385.979L817.726 387.004C819.671 383.747 822.287 381.222 825.586 379.414L824.625 377.66ZM816.003 385.988C813.915 389.568 812.884 393.677 812.884 398.281H814.884C814.884 393.984 815.842 390.233 817.731 386.995L816.003 385.988ZM812.884 398.281V460H814.884V398.281H812.884ZM813.884 459H783.629V461H813.884V459ZM858.575 456.875L857.863 457.577L857.868 457.582L857.873 457.587L858.575 456.875ZM858.575 432.869L857.873 432.157L857.868 432.162L858.575 432.869ZM882.581 432.869L881.884 433.586L881.884 433.586L882.581 432.869ZM885.28 453.395L884.429 452.869L884.427 452.873L885.28 453.395ZM879.101 459.574L879.611 460.434L879.622 460.427L879.101 459.574ZM870.649 460.847C866.227 460.847 862.453 459.294 859.277 456.163L857.873 457.587C861.421 461.085 865.697 462.847 870.649 462.847V460.847ZM859.287 456.173C856.156 452.997 854.604 449.224 854.604 444.801H852.604C852.604 449.753 854.366 454.03 857.863 457.577L859.287 456.173ZM854.604 444.801C854.604 440.429 856.153 436.705 859.282 433.576L857.868 432.162C854.368 435.662 852.604 439.893 852.604 444.801H854.604ZM859.277 433.581C862.453 430.45 866.227 428.898 870.649 428.898V426.898C865.697 426.898 861.421 428.66 857.873 432.157L859.277 433.581ZM870.649 428.898C874.921 428.898 878.652 430.444 881.884 433.586L883.278 432.152C879.692 428.666 875.468 426.898 870.649 426.898V428.898ZM881.884 433.586C885.105 436.718 886.695 440.438 886.695 444.801H888.695C888.695 439.883 886.875 435.65 883.278 432.152L881.884 433.586ZM886.695 444.801C886.695 447.744 885.939 450.426 884.429 452.869L886.13 453.921C887.84 451.155 888.695 448.108 888.695 444.801H886.695ZM884.427 452.873C882.947 455.295 881.001 457.241 878.579 458.721L879.622 460.427C882.314 458.782 884.488 456.609 886.133 453.916L884.427 452.873ZM878.591 458.714C876.194 460.134 873.554 460.847 870.649 460.847V462.847C873.9 462.847 876.894 462.044 879.611 460.434L878.591 458.714Z" fill="black" mask="url(#path-2-outside-1_108_22)"/>
</svg>
